<svg width="44" height="32" viewBox="0 0 44 32" fill="none" xmlns="http://www.w3.org/2000/svg">
<path d="M3.30345 5.52375C3.67381 5.05613 4.20853 4.66857 4.85276 4.4008C5.49699 4.13304 6.22756 3.99471 6.96954 4L37.0305 4C37.7725 3.99471 38.503 4.13304 39.1473 4.4008C39.7915 4.66857 40.3262 5.05613 40.6966 5.52375C41.058 5.97361 41.2484 6.48525 41.2484 7.00625C41.2484 7.52726 41.058 8.0389 40.6966 8.48875L25.6695 27.4725C25.2939 27.9376 24.7577 28.3232 24.1141 28.5912C23.4704 28.8591 22.7417 29.0001 22 29.0001C21.2584 29.0001 20.5296 28.8591 19.8859 28.5912C19.2423 28.3232 18.7061 27.9376 18.3305 27.4725L3.30001 8.48875C2.93914 8.03868 2.74928 7.52692 2.74989 7.00591C2.75049 6.48491 2.94154 5.97338 3.30345 5.52375Z" fill="#CB4E4E"/>
</svg>
