<svg width="16" height="16" viewBox="0 0 16 16" fill="none" xmlns="http://www.w3.org/2000/svg">
<g clip-path="url(#clip0_249_2)">
<path d="M7.962 16C5.93067 16 4.16033 15.3367 2.651 14.01C1.14167 12.6847 0.267999 11.0147 0.0299988 9H1.041C1.313 10.72 2.09667 12.15 3.392 13.29C4.68867 14.43 6.212 15 7.962 15C9.912 15 11.566 14.321 12.924 12.963C14.282 11.605 14.9613 9.95067 14.962 8C14.962 6.05 14.2827 4.39567 12.924 3.037C11.5653 1.67833 9.91133 0.999333 7.962 1C6.92733 1 5.95466 1.21867 5.044 1.656C4.134 2.09333 3.33067 2.69533 2.634 3.462H5.115V4.462H0.961998V0.308H1.962V2.696C2.73533 1.84733 3.64133 1.186 4.68 0.712C5.71867 0.237333 6.81267 0 7.962 0C9.07067 0 10.11 0.208667 11.08 0.626C12.05 1.04333 12.8973 1.61433 13.622 2.339C14.3467 3.06367 14.918 3.91133 15.336 4.882C15.7533 5.852 15.962 6.89133 15.962 8C15.962 9.10867 15.7533 10.148 15.336 11.118C14.9187 12.088 14.3473 12.9357 13.622 13.661C12.8973 14.3857 12.05 14.9567 11.08 15.374C10.11 15.7913 9.07067 16 7.962 16ZM11.165 11.854L7.519 8.208V3H8.519V7.792L11.873 11.146L11.165 11.854Z" fill="#999999"/>
</g>
<defs>
<clipPath id="clip0_249_2">
<rect width="16" height="16" fill="white"/>
</clipPath>
</defs>
</svg>
