<svg width="1520" height="990" viewBox="0 0 1520 990" fill="none" xmlns="http://www.w3.org/2000/svg">
<g clip-path="url(#clip0_1_2)" filter="url(#filter0_d_1_2)">
<rect width="1512" height="982" transform="translate(4)" fill="#383838"/>
<g clip-path="url(#clip1_1_2)">
<path fill-rule="evenodd" clip-rule="evenodd" d="M316.406 -106H338.005V217.746H662V239.329H316.406V-106ZM636.448 -38.8118C637.546 -37.9138 638.456 -36.8082 639.127 -35.5584C639.797 -34.3085 640.215 -32.9389 640.355 -31.5277C640.496 -30.1166 640.356 -28.6916 639.945 -27.3343C639.534 -25.977 638.859 -24.7139 637.96 -23.6174L540.761 95.0896C539.806 96.2548 538.617 97.2072 537.271 97.8856C535.925 98.564 534.452 98.9533 532.946 99.0286C531.441 99.1038 529.936 98.8632 528.529 98.3224C527.122 97.7815 525.844 96.9523 524.777 95.8882L468.899 40.0528L389.931 148.551C388.203 150.746 385.692 152.186 382.924 152.569C380.156 152.953 377.347 152.249 375.087 150.606C372.827 148.963 371.293 146.508 370.807 143.758C370.32 141.009 370.919 138.178 372.478 135.86L458.877 17.1531C459.794 15.8908 460.974 14.8422 462.336 14.0794C463.697 13.3167 465.208 12.8579 466.765 12.7348C468.321 12.6118 469.885 12.8272 471.35 13.3664C472.815 13.9056 474.145 14.7557 475.249 15.8581L531.603 72.19L621.241 -37.301C622.14 -38.3985 623.247 -39.3083 624.497 -39.9783C625.748 -40.6482 627.119 -41.0653 628.531 -41.2056C629.943 -41.3459 631.369 -41.2067 632.728 -40.796C634.086 -40.3853 635.35 -39.711 636.448 -38.8118Z" fill="#4ECB71"/>
</g>
<g clip-path="url(#clip2_1_2)">
<path fill-rule="evenodd" clip-rule="evenodd" d="M1180.07 -6H1197.38V253.649H1457V270.959H1180.07V-6ZM1436.52 47.8858C1437.4 48.606 1438.13 49.4927 1438.67 50.4951C1439.21 51.4975 1439.54 52.596 1439.66 53.7278C1439.77 54.8595 1439.66 56.0024 1439.33 57.0909C1439 58.1795 1438.46 59.1925 1437.74 60.072L1359.85 155.277C1359.09 156.211 1358.13 156.975 1357.05 157.519C1355.98 158.063 1354.8 158.375 1353.59 158.436C1352.38 158.496 1351.18 158.303 1350.05 157.869C1348.92 157.436 1347.9 156.771 1347.04 155.917L1302.27 111.136L1238.99 198.153C1237.61 199.914 1235.59 201.069 1233.38 201.376C1231.16 201.683 1228.91 201.119 1227.1 199.801C1225.29 198.483 1224.06 196.515 1223.67 194.31C1223.28 192.104 1223.76 189.834 1225.01 187.975L1294.24 92.7704C1294.97 91.7581 1295.92 90.917 1297.01 90.3053C1298.1 89.6936 1299.31 89.3257 1300.56 89.2269C1301.8 89.1282 1303.06 89.301 1304.23 89.7335C1305.41 90.1659 1306.47 90.8477 1307.36 91.7318L1352.51 136.911L1424.34 49.0975C1425.06 48.2173 1425.95 47.4876 1426.95 46.9503C1427.95 46.413 1429.05 46.0785 1430.18 45.966C1431.31 45.8534 1432.46 45.9651 1433.54 46.2945C1434.63 46.6239 1435.65 47.1646 1436.52 47.8858Z" fill="#4ECB71"/>
</g>
<g clip-path="url(#clip3_1_2)">
<path fill-rule="evenodd" clip-rule="evenodd" d="M641.486 582H667.518V972.017H1058V998.018H641.486V582ZM1027.2 662.941C1028.53 664.023 1029.62 665.355 1030.43 666.861C1031.24 668.367 1031.74 670.017 1031.91 671.717C1032.08 673.417 1031.91 675.133 1031.42 676.768C1030.92 678.404 1030.11 679.925 1029.03 681.246L911.882 824.252C910.73 825.656 909.297 826.803 907.675 827.621C906.053 828.438 904.278 828.907 902.463 828.998C900.649 829.088 898.835 828.798 897.14 828.147C895.444 827.495 893.904 826.496 892.618 825.214L825.273 757.949L730.099 888.657C728.017 891.301 724.99 893.036 721.654 893.498C718.318 893.96 714.932 893.112 712.209 891.132C709.486 889.153 707.637 886.196 707.051 882.884C706.464 879.571 707.186 876.16 709.065 873.368L813.194 730.362C814.299 728.842 815.721 727.578 817.362 726.659C819.003 725.741 820.824 725.188 822.7 725.04C824.575 724.891 826.461 725.151 828.226 725.8C829.992 726.45 831.595 727.474 832.926 728.802L900.844 796.665L1008.88 664.762C1009.96 663.439 1011.29 662.343 1012.8 661.536C1014.31 660.729 1015.96 660.227 1017.66 660.058C1019.37 659.889 1021.08 660.056 1022.72 660.551C1024.36 661.046 1025.88 661.858 1027.2 662.941Z" fill="#4ECB71"/>
</g>
<g clip-path="url(#clip4_1_2)">
<path fill-rule="evenodd" clip-rule="evenodd" d="M653.931 220H672.998V505.722H959V524.771H653.931V220ZM936.444 279.297C937.414 280.089 938.217 281.065 938.809 282.168C939.401 283.271 939.769 284.48 939.893 285.726C940.017 286.971 939.894 288.229 939.531 289.426C939.169 290.624 938.573 291.739 937.779 292.707L851.978 397.472C851.135 398.5 850.085 399.341 848.897 399.939C847.709 400.538 846.409 400.882 845.08 400.948C843.751 401.014 842.423 400.802 841.181 400.325C839.939 399.847 838.811 399.116 837.869 398.176L788.543 348.899L718.835 444.654C717.31 446.591 715.093 447.862 712.649 448.201C710.206 448.539 707.726 447.917 705.732 446.467C703.737 445.017 702.383 442.851 701.953 440.424C701.524 437.998 702.053 435.499 703.429 433.454L779.696 328.689C780.505 327.575 781.547 326.649 782.749 325.976C783.951 325.303 785.285 324.898 786.659 324.789C788.032 324.681 789.413 324.871 790.706 325.347C791.999 325.823 793.174 326.573 794.149 327.546L843.894 377.262L923.021 280.63C923.814 279.662 924.791 278.859 925.895 278.268C926.999 277.676 928.209 277.308 929.456 277.184C930.702 277.06 931.961 277.183 933.16 277.546C934.359 277.908 935.475 278.503 936.444 279.297Z" fill="#4ECB71"/>
</g>
<g clip-path="url(#clip5_1_2)">
<path fill-rule="evenodd" clip-rule="evenodd" d="M698.709 311H727.414V-119.213H1158V-147.894H698.709V311ZM1124.04 221.716C1125.5 220.523 1126.71 219.054 1127.6 217.393C1128.49 215.732 1129.05 213.912 1129.23 212.037C1129.42 210.162 1129.24 208.268 1128.69 206.464C1128.14 204.661 1127.25 202.982 1126.05 201.525L996.875 43.7802C995.605 42.2319 994.025 40.9662 992.236 40.0647C990.448 39.1633 988.49 38.6459 986.489 38.5459C984.488 38.446 982.489 38.7656 980.619 39.4844C978.749 40.2031 977.051 41.3049 975.633 42.719L901.371 116.916L796.423 -27.2623C794.127 -30.1791 790.789 -32.0932 787.11 -32.6023C783.431 -33.1115 779.698 -32.1761 776.695 -29.9927C773.693 -27.8093 771.654 -24.5479 771.007 -20.8938C770.361 -17.2398 771.157 -13.4777 773.229 -10.398L888.051 147.347C889.27 149.024 890.838 150.418 892.648 151.431C894.458 152.445 896.466 153.055 898.534 153.218C900.602 153.382 902.681 153.095 904.628 152.379C906.575 151.662 908.343 150.533 909.81 149.068L984.704 74.2107L1103.83 219.709C1105.03 221.167 1106.5 222.376 1108.16 223.266C1109.82 224.157 1111.64 224.711 1113.52 224.897C1115.4 225.084 1117.29 224.899 1119.1 224.353C1120.9 223.807 1122.58 222.911 1124.04 221.716Z" fill="#CB4E4E"/>
</g>
<g clip-path="url(#clip6_1_2)">
<path fill-rule="evenodd" clip-rule="evenodd" d="M460.56 729H479.275V448.71H760V430.024H460.56V729ZM737.86 670.83C738.812 670.053 739.601 669.096 740.182 668.014C740.763 666.932 741.124 665.746 741.246 664.524C741.368 663.302 741.247 662.069 740.891 660.893C740.535 659.718 739.95 658.625 739.17 657.675L654.953 554.902C654.125 553.893 653.095 553.069 651.929 552.482C650.763 551.894 649.486 551.557 648.182 551.492C646.877 551.427 645.573 551.635 644.354 552.103C643.135 552.572 642.028 553.29 641.104 554.211L592.688 602.552L524.266 508.617C522.769 506.717 520.593 505.47 518.194 505.138C515.796 504.806 513.362 505.416 511.404 506.838C509.447 508.261 508.117 510.385 507.696 512.766C507.274 515.147 507.793 517.598 509.144 519.604L584.004 622.378C584.799 623.47 585.821 624.378 587.001 625.039C588.181 625.699 589.49 626.096 590.838 626.203C592.187 626.309 593.542 626.123 594.811 625.656C596.08 625.189 597.233 624.453 598.19 623.499L647.018 574.728L724.685 669.522C725.464 670.473 726.422 671.26 727.506 671.84C728.59 672.42 729.777 672.781 731.001 672.903C732.225 673.024 733.46 672.904 734.637 672.548C735.814 672.193 736.909 671.609 737.86 670.83Z" fill="#CB4E4E"/>
</g>
<g clip-path="url(#clip7_1_2)">
<path fill-rule="evenodd" clip-rule="evenodd" d="M1070.35 1159H1109.33V575.605H1694V536.712H1070.35V1159ZM1647.89 1037.93C1649.87 1036.31 1651.51 1034.32 1652.72 1032.06C1653.93 1029.81 1654.69 1027.34 1654.94 1024.8C1655.19 1022.26 1654.94 1019.69 1654.2 1017.24C1653.46 1014.8 1652.24 1012.52 1650.62 1010.55L1475.22 796.634C1473.49 794.534 1471.35 792.818 1468.92 791.595C1466.49 790.373 1463.83 789.671 1461.12 789.536C1458.4 789.4 1455.68 789.834 1453.14 790.808C1450.61 791.783 1448.3 793.277 1446.37 795.195L1345.54 895.811L1203.03 700.296C1199.92 696.34 1195.39 693.745 1190.39 693.054C1185.39 692.364 1180.33 693.632 1176.25 696.593C1172.17 699.554 1169.4 703.977 1168.52 708.932C1167.65 713.887 1168.73 718.989 1171.54 723.165L1327.45 937.076C1329.11 939.351 1331.24 941.241 1333.69 942.615C1336.15 943.99 1338.88 944.816 1341.69 945.038C1344.49 945.26 1347.32 944.872 1349.96 943.9C1352.6 942.928 1355 941.397 1357 939.41L1458.69 837.899L1620.45 1035.2C1622.07 1037.18 1624.07 1038.82 1626.32 1040.03C1628.58 1041.24 1631.06 1041.99 1633.6 1042.24C1636.15 1042.49 1638.73 1042.24 1641.18 1041.5C1643.63 1040.76 1645.91 1039.55 1647.89 1037.93Z" fill="#CB4E4E"/>
</g>
<g clip-path="url(#clip8_1_2)">
<path fill-rule="evenodd" clip-rule="evenodd" d="M1225.7 170H1254.97V608.904H1694V638.165H1225.7V170ZM1659.38 261.087C1660.86 262.305 1662.1 263.804 1663.01 265.498C1663.91 267.192 1664.48 269.049 1664.67 270.962C1664.86 272.876 1664.67 274.807 1664.11 276.647C1663.56 278.488 1662.64 280.2 1661.42 281.687L1529.72 442.618C1528.42 444.198 1526.81 445.489 1524.99 446.409C1523.16 447.328 1521.17 447.856 1519.13 447.958C1517.09 448.06 1515.05 447.734 1513.14 447.001C1511.23 446.268 1509.5 445.143 1508.06 443.701L1432.34 368.004L1325.33 515.096C1322.99 518.072 1319.59 520.024 1315.84 520.544C1312.09 521.063 1308.28 520.109 1305.22 517.881C1302.16 515.654 1300.08 512.327 1299.42 508.599C1298.76 504.871 1299.57 501.033 1301.68 497.891L1418.76 336.959C1420 335.248 1421.6 333.826 1423.45 332.792C1425.29 331.758 1427.34 331.136 1429.45 330.969C1431.56 330.803 1433.67 331.095 1435.66 331.826C1437.64 332.557 1439.45 333.709 1440.94 335.204L1517.31 411.573L1638.77 263.136C1639.99 261.648 1641.49 260.414 1643.18 259.506C1644.88 258.598 1646.73 258.032 1648.65 257.842C1650.56 257.652 1652.49 257.841 1654.33 258.397C1656.18 258.954 1657.89 259.868 1659.38 261.087Z" fill="#4ECB71"/>
</g>
<g clip-path="url(#clip9_1_2)">
<path fill-rule="evenodd" clip-rule="evenodd" d="M-213.749 152H-164.639V888.577H572V937.682H-213.749V152ZM513.904 304.864C516.401 306.908 518.471 309.423 519.995 312.266C521.52 315.11 522.469 318.226 522.788 321.437C523.107 324.648 522.791 327.89 521.856 330.978C520.921 334.066 519.387 336.939 517.341 339.434L296.35 609.513C294.177 612.164 291.474 614.331 288.414 615.874C285.354 617.417 282.005 618.303 278.582 618.474C275.159 618.646 271.738 618.098 268.539 616.868C265.34 615.637 262.434 613.751 260.009 611.33L132.963 484.295L-46.5806 731.146C-50.5082 736.14 -56.2189 739.417 -62.5124 740.289C-68.806 741.161 -75.1925 739.559 -80.3299 735.821C-85.4672 732.083 -88.9554 726.499 -90.0614 720.243C-91.1674 713.986 -89.8052 707.545 -86.2609 702.272L110.176 432.194C112.261 429.322 114.944 426.936 118.04 425.201C121.136 423.465 124.571 422.422 128.11 422.142C131.648 421.862 135.204 422.352 138.535 423.579C141.865 424.805 144.89 426.739 147.401 429.248L275.527 557.412L479.331 308.302C481.374 305.805 483.89 303.735 486.734 302.211C489.577 300.686 492.694 299.737 495.905 299.418C499.116 299.099 502.358 299.416 505.446 300.35C508.535 301.285 511.409 302.819 513.904 304.864Z" fill="#4ECB71"/>
<g clip-path="url(#clip10_1_2)">
<path fill-rule="evenodd" clip-rule="evenodd" d="M-76.44 369H-57.725V88.7096H223V70.0235H-76.44V369ZM200.86 310.83C201.812 310.053 202.601 309.096 203.182 308.014C203.763 306.932 204.124 305.746 204.246 304.524C204.368 303.302 204.247 302.069 203.891 300.893C203.535 299.718 202.95 298.625 202.17 297.675L117.953 194.902C117.125 193.893 116.095 193.069 114.929 192.482C113.763 191.894 112.486 191.557 111.182 191.492C109.877 191.427 108.573 191.635 107.354 192.103C106.135 192.572 105.028 193.29 104.104 194.211L55.6879 242.552L-12.7341 148.617C-14.2309 146.717 -16.4072 145.47 -18.8056 145.138C-21.204 144.806 -23.6378 145.416 -25.5956 146.838C-27.5534 148.261 -28.8827 150.385 -29.3042 152.766C-29.7257 155.147 -29.2066 157.598 -27.8559 159.604L47.0041 262.378C47.7987 263.47 48.8211 264.378 50.001 265.039C51.1808 265.699 52.49 266.096 53.8383 266.203C55.1867 266.309 56.5421 266.123 57.8113 265.656C59.0805 265.189 60.2332 264.453 61.1901 263.499L110.018 214.728L187.685 309.522C188.464 310.473 189.422 311.26 190.506 311.84C191.59 312.42 192.777 312.781 194.001 312.903C195.225 313.024 196.46 312.904 197.637 312.548C198.814 312.193 199.909 311.609 200.86 310.83Z" fill="#CB4E4E"/>
</g>
</g>
<g clip-path="url(#clip11_1_2)">
<path fill-rule="evenodd" clip-rule="evenodd" d="M82.3086 1168.29H113.477V701.143H581V670H82.3086V1168.29ZM544.128 1071.34C545.713 1070.05 547.027 1068.45 547.994 1066.65C548.962 1064.85 549.564 1062.87 549.767 1060.83C549.969 1058.8 549.768 1056.74 549.175 1054.78C548.582 1052.82 547.608 1051 546.31 1049.42L406.053 878.131C404.674 876.45 402.959 875.076 401.017 874.097C399.074 873.118 396.949 872.556 394.776 872.448C392.604 872.339 390.432 872.686 388.402 873.467C386.372 874.247 384.528 875.443 382.988 876.979L302.356 957.547L188.405 800.989C185.912 797.822 182.288 795.743 178.294 795.191C174.299 794.638 170.246 795.653 166.986 798.024C163.725 800.395 161.511 803.937 160.809 807.904C160.107 811.872 160.972 815.957 163.221 819.301L287.894 990.59C289.217 992.411 290.92 993.925 292.885 995.025C294.85 996.126 297.03 996.788 299.276 996.965C301.521 997.143 303.779 996.832 305.893 996.054C308.006 995.276 309.926 994.049 311.52 992.459L392.838 911.174L522.186 1069.16C523.482 1070.75 525.079 1072.06 526.884 1073.03C528.689 1073.99 530.667 1074.6 532.705 1074.8C534.742 1075 536.8 1074.8 538.76 1074.21C540.72 1073.62 542.544 1072.64 544.128 1071.34Z" fill="#CB4E4E"/>
</g>
<g clip-path="url(#clip12_1_2)">
<path fill-rule="evenodd" clip-rule="evenodd" d="M930.211 608H946.323V366.82H1188V350.741H930.211V608ZM1168.94 557.947C1169.76 557.278 1170.44 556.454 1170.94 555.523C1171.44 554.592 1171.75 553.572 1171.85 552.521C1171.96 551.469 1171.86 550.408 1171.55 549.397C1171.24 548.386 1170.74 547.445 1170.07 546.628L1097.56 458.195C1096.85 457.327 1095.97 456.617 1094.96 456.112C1093.96 455.607 1092.86 455.317 1091.74 455.261C1090.61 455.205 1089.49 455.384 1088.44 455.787C1087.39 456.19 1086.44 456.807 1085.64 457.6L1043.96 499.196L985.056 418.368C983.767 416.733 981.894 415.66 979.829 415.374C977.764 415.089 975.669 415.613 973.983 416.837C972.298 418.061 971.154 419.89 970.791 421.938C970.428 423.987 970.875 426.096 972.038 427.822L1036.48 516.255C1037.17 517.195 1038.05 517.977 1039.06 518.545C1040.08 519.113 1041.21 519.455 1042.37 519.547C1043.53 519.638 1044.7 519.478 1045.79 519.076C1046.88 518.674 1047.87 518.041 1048.7 517.22L1090.73 475.254L1157.6 556.822C1158.27 557.639 1159.09 558.317 1160.03 558.816C1160.96 559.315 1161.98 559.626 1163.03 559.73C1164.09 559.835 1165.15 559.731 1166.17 559.425C1167.18 559.119 1168.12 558.617 1168.94 557.947Z" fill="#CB4E4E"/>
</g>
</g>
<defs>
<filter id="filter0_d_1_2" x="0" y="0" width="1520" height="990" filterUnits="userSpaceOnUse" color-interpolation-filters="sRGB">
<feFlood flood-opacity="0" result="BackgroundImageFix"/>
<feColorMatrix in="SourceAlpha" type="matrix" values="0 0 0 0 0 0 0 0 0 0 0 0 0 0 0 0 0 0 127 0" result="hardAlpha"/>
<feOffset dy="4"/>
<feGaussianBlur stdDeviation="2"/>
<feComposite in2="hardAlpha" operator="out"/>
<feColorMatrix type="matrix" values="0 0 0 0 0 0 0 0 0 0 0 0 0 0 0 0 0 0 0.25 0"/>
<feBlend mode="normal" in2="BackgroundImageFix" result="effect1_dropShadow_1_2"/>
<feBlend mode="normal" in="SourceGraphic" in2="effect1_dropShadow_1_2" result="shape"/>
</filter>
<clipPath id="clip0_1_2">
<rect width="1512" height="982" fill="white" transform="translate(4)"/>
</clipPath>
<clipPath id="clip1_1_2">
<rect width="307" height="298" fill="white" transform="translate(355 -106)"/>
</clipPath>
<clipPath id="clip2_1_2">
<rect width="246" height="239" fill="white" transform="translate(1211 -6)"/>
</clipPath>
<clipPath id="clip3_1_2">
<rect width="370" height="359" fill="white" transform="translate(688 582)"/>
</clipPath>
<clipPath id="clip4_1_2">
<rect width="271" height="263" fill="white" transform="translate(688 220)"/>
</clipPath>
<clipPath id="clip5_1_2">
<rect width="408" height="396" fill="white" transform="matrix(1 0 0 -1 750 311)"/>
</clipPath>
<clipPath id="clip6_1_2">
<rect width="266" height="258" fill="white" transform="matrix(1 0 0 -1 494 729)"/>
</clipPath>
<clipPath id="clip7_1_2">
<rect width="554" height="537" fill="white" transform="matrix(1 0 0 -1 1140 1159)"/>
</clipPath>
<clipPath id="clip8_1_2">
<rect width="416" height="404" fill="white" transform="translate(1278 170)"/>
</clipPath>
<clipPath id="clip9_1_2">
<rect width="698" height="678" fill="white" transform="translate(-126 152)"/>
</clipPath>
<clipPath id="clip10_1_2">
<rect width="266" height="258" fill="white" transform="matrix(1 0 0 -1 -43 369)"/>
</clipPath>
<clipPath id="clip11_1_2">
<rect width="443" height="338" fill="white" transform="translate(138 762)"/>
</clipPath>
<clipPath id="clip12_1_2">
<rect width="229" height="222" fill="white" transform="matrix(1 0 0 -1 959 608)"/>
</clipPath>
</defs>
</svg>
