<svg width="256" height="256" viewBox="0 0 256 256" fill="none" xmlns="http://www.w3.org/2000/svg">
<path d="M204.24 195.76C204.829 196.309 205.302 196.972 205.63 197.708C205.958 198.444 206.135 199.238 206.149 200.044C206.163 200.849 206.015 201.65 205.713 202.397C205.411 203.144 204.962 203.823 204.392 204.392C203.823 204.962 203.144 205.411 202.397 205.713C201.65 206.015 200.849 206.163 200.044 206.149C199.238 206.135 198.444 205.958 197.708 205.63C196.972 205.302 196.309 204.829 195.76 204.24L128 136.49L60.24 204.24C59.1026 205.3 57.5982 205.877 56.0438 205.849C54.4894 205.822 53.0063 205.192 51.907 204.093C50.8077 202.994 50.178 201.511 50.1506 199.956C50.1232 198.402 50.7002 196.897 51.76 195.76L119.51 128L51.76 60.24C50.7002 59.1026 50.1232 57.5982 50.1506 56.0438C50.178 54.4894 50.8077 53.0063 51.907 51.907C53.0063 50.8077 54.4894 50.178 56.0438 50.1506C57.5982 50.1232 59.1026 50.7002 60.24 51.76L128 119.51L195.76 51.76C196.897 50.7002 198.402 50.1232 199.956 50.1506C201.511 50.178 202.994 50.8077 204.093 51.907C205.192 53.0063 205.822 54.4894 205.849 56.0438C205.877 57.5982 205.3 59.1026 204.24 60.24L136.49 128L204.24 195.76Z" fill="#808080"/>
</svg>
