<svg width="505" height="71" viewBox="0 0 505 71" fill="none" xmlns="http://www.w3.org/2000/svg">
<path d="M38.0371 39.7031H9.96094V59.2344H38.0371L39.2578 58.0137V40.9238L38.0371 39.7031ZM39.2578 31.1582V38.4824L40.4785 39.7031H49.0234V59.2344H40.4785L39.2578 60.4551V69H0.195312V0.640625H39.2578V9.18555L40.4785 10.4062H49.0234V29.9375H40.4785L39.2578 31.1582ZM38.0371 29.9375L39.2578 28.7168V11.627L38.0371 10.4062H9.96094V29.9375H38.0371Z" fill="#4ECB71"/>
<path d="M53.9891 69V63.7H61.5891V35H54.0891V29.7H68.8891V63.7H75.9891V69H53.9891ZM64.2891 21.1C62.8224 21.1 61.5557 20.6333 60.4891 19.7C59.4224 18.7 58.8891 17.4667 58.8891 16C58.8891 14.5333 59.4224 13.3333 60.4891 12.4C61.5557 11.4 62.8224 10.9 64.2891 10.9C65.8224 10.9 67.0891 11.4 68.0891 12.4C69.1557 13.3333 69.6891 14.5333 69.6891 16C69.6891 17.4667 69.1557 18.7 68.0891 19.7C67.0891 20.6333 65.8224 21.1 64.2891 21.1ZM98.3492 69C94.6159 69 91.7826 68.0667 89.8492 66.2C87.9159 64.2667 86.9492 61.3333 86.9492 57.4V35H80.4492V29.7H86.9492V16.3L94.3492 13.4V29.7H104.749V35H94.3492V57C94.3492 59.4667 94.7492 61.2 95.5492 62.2C96.3492 63.2 97.7159 63.7 99.6492 63.7H105.649V69H98.3492ZM192.321 70.2C188.121 70.2 184.421 69.3333 181.221 67.6C178.021 65.8667 175.521 63.4333 173.721 60.3C171.988 57.1667 171.121 53.5 171.121 49.3C171.121 45.1 171.988 41.4667 173.721 38.4C175.521 35.2667 178.021 32.8667 181.221 31.2C184.421 29.4667 188.121 28.6 192.321 28.6C196.588 28.6 200.321 29.4667 203.521 31.2C206.721 32.8667 209.221 35.2667 211.021 38.4C212.821 41.4667 213.721 45.0667 213.721 49.2C213.721 53.4 212.821 57.0667 211.021 60.2C209.221 63.3333 206.721 65.8 203.521 67.6C200.321 69.3333 196.588 70.2 192.321 70.2ZM192.321 64.4C195.121 64.4 197.554 63.7667 199.621 62.5C201.688 61.2333 203.288 59.4667 204.421 57.2C205.554 54.9333 206.121 52.2667 206.121 49.2C206.121 46.2 205.554 43.6 204.421 41.4C203.288 39.2 201.688 37.5 199.621 36.3C197.554 35.0333 195.121 34.4 192.321 34.4C189.588 34.4 187.188 35.0333 185.121 36.3C183.121 37.5 181.554 39.2333 180.421 41.5C179.288 43.7 178.721 46.3 178.721 49.3C178.721 52.3 179.288 54.9333 180.421 57.2C181.554 59.4667 183.121 61.2333 185.121 62.5C187.188 63.7667 189.588 64.4 192.321 64.4ZM236.98 70C233.913 70 231.413 69.4 229.48 68.2C227.546 67 226.113 65.4 225.18 63.4C224.313 61.4 223.88 59.2 223.88 56.8V35H217.28V29.7H231.28V56C231.28 58.4667 231.88 60.4333 233.08 61.9C234.28 63.3667 236.146 64.1 238.68 64.1C241.613 64.1 244.313 63.4 246.78 62C249.246 60.6 251.58 58.6667 253.78 56.2L251.48 60.1V35H244.38V29.7H258.78V63.7H266.08V69H251.68L251.38 62.5L253.98 62C251.38 64.4667 248.646 66.4333 245.78 67.9C242.98 69.3 240.046 70 236.98 70ZM269.356 69V63.7H276.956V35H269.356V29.7H284.256V35.1L281.456 35.4C284.256 33.4667 287.056 31.8667 289.856 30.6C292.656 29.3333 295.523 28.7 298.456 28.7C302.056 28.7 305.09 29.8333 307.556 32.1C310.09 34.3 311.356 37.5333 311.356 41.8V63.7H318.656V69H297.556V63.7H304.056V43.2C304.056 40.4667 303.39 38.3333 302.056 36.8C300.723 35.2667 298.89 34.5 296.556 34.5C294.156 34.5 291.723 35.0333 289.256 36.1C286.79 37.1667 284.156 38.6333 281.356 40.5L284.256 37.3V63.7H291.356V69H269.356ZM338.716 69C334.983 69 332.15 68.0667 330.216 66.2C328.283 64.2667 327.316 61.3333 327.316 57.4V35H320.816V29.7H327.316V16.3L334.716 13.4V29.7H345.116V35H334.716V57C334.716 59.4667 335.116 61.2 335.916 62.2C336.716 63.2 338.083 63.7 340.016 63.7H346.016V69H338.716ZM373.595 70.2C369.461 70.2 365.695 69.3333 362.295 67.6C358.961 65.8667 356.295 63.4333 354.295 60.3C352.361 57.1667 351.395 53.5333 351.395 49.4C351.395 45.1333 352.328 41.4667 354.195 38.4C356.061 35.2667 358.561 32.8667 361.695 31.2C364.828 29.4667 368.328 28.6 372.195 28.6C376.195 28.6 379.628 29.4333 382.495 31.1C385.428 32.7667 387.661 35.1333 389.195 38.2C390.728 41.2667 391.495 44.8667 391.495 49V50.9H357.895L357.995 46.3H384.195C384.195 43.7 383.661 41.5 382.595 39.7C381.595 37.8333 380.195 36.4333 378.395 35.5C376.595 34.5 374.528 34 372.195 34C369.728 34 367.495 34.6 365.495 35.8C363.495 36.9333 361.895 38.6 360.695 40.8C359.561 42.9333 358.995 45.5333 358.995 48.6C358.995 51.8667 359.595 54.7 360.795 57.1C361.995 59.4333 363.661 61.2667 365.795 62.6C367.995 63.8667 370.495 64.5 373.295 64.5C376.295 64.5 379.061 63.9 381.595 62.7C384.128 61.5 386.328 60 388.195 58.2L390.795 62.7C388.995 64.7667 386.661 66.5333 383.795 68C380.928 69.4667 377.528 70.2 373.595 70.2ZM398.488 69V63.7H406.088V35H398.488V29.7H413.388V41.4L411.988 41.2C412.722 38.2 413.655 35.8333 414.788 34.1C415.988 32.3667 417.322 31.1333 418.788 30.4C420.322 29.6 421.888 29.2 423.488 29.2C424.822 29.2 426.155 29.3667 427.488 29.7C428.822 30.0333 430.155 30.5333 431.488 31.2L429.688 37.9C428.555 37.1667 427.422 36.6333 426.288 36.3C425.155 35.9 423.988 35.7 422.788 35.7C420.255 35.7 418.055 36.7667 416.188 38.9C414.388 40.9667 413.488 43.9667 413.488 47.9L413.388 63.7H420.388V69H398.488Z" fill="white"/>
<path d="M125.572 59.2344H117.027V10.4062H125.572L126.793 9.18555V0.640625H156.09V9.18555L157.311 10.4062H165.855V20.1719H156.09V11.627L154.869 10.4062H128.014L126.793 11.627V58.0137L128.014 59.2344H154.869L156.09 58.0137V49.4688H165.855V59.2344H157.311L156.09 60.4551V69H126.793V60.4551L125.572 59.2344Z" fill="#CB4E4E"/>
<path d="M438.063 69V61.95H445.113V69H438.063ZM452.791 69V65.025H458.491V43.5H452.866V39.525H463.966V65.025H469.291V69H452.791ZM460.516 33.075C459.416 33.075 458.466 32.725 457.666 32.025C456.866 31.275 456.466 30.35 456.466 29.25C456.466 28.15 456.866 27.25 457.666 26.55C458.466 25.8 459.416 25.425 460.516 25.425C461.666 25.425 462.616 25.8 463.366 26.55C464.166 27.25 464.566 28.15 464.566 29.25C464.566 30.35 464.166 31.275 463.366 32.025C462.616 32.725 461.666 33.075 460.516 33.075ZM488.911 69.9C485.761 69.9 482.986 69.25 480.586 67.95C478.186 66.65 476.311 64.825 474.961 62.475C473.661 60.125 473.011 57.375 473.011 54.225C473.011 51.075 473.661 48.35 474.961 46.05C476.311 43.7 478.186 41.9 480.586 40.65C482.986 39.35 485.761 38.7 488.911 38.7C492.111 38.7 494.911 39.35 497.311 40.65C499.711 41.9 501.586 43.7 502.936 46.05C504.286 48.35 504.961 51.05 504.961 54.15C504.961 57.3 504.286 60.05 502.936 62.4C501.586 64.75 499.711 66.6 497.311 67.95C494.911 69.25 492.111 69.9 488.911 69.9ZM488.911 65.55C491.011 65.55 492.836 65.075 494.386 64.125C495.936 63.175 497.136 61.85 497.986 60.15C498.836 58.45 499.261 56.45 499.261 54.15C499.261 51.9 498.836 49.95 497.986 48.3C497.136 46.65 495.936 45.375 494.386 44.475C492.836 43.525 491.011 43.05 488.911 43.05C486.861 43.05 485.061 43.525 483.511 44.475C482.011 45.375 480.836 46.675 479.986 48.375C479.136 50.025 478.711 51.975 478.711 54.225C478.711 56.475 479.136 58.45 479.986 60.15C480.836 61.85 482.011 63.175 483.511 64.125C485.061 65.075 486.861 65.55 488.911 65.55Z" fill="#999999"/>
</svg>
