<svg width="78" height="78" viewBox="0 0 78 78" fill="none" xmlns="http://www.w3.org/2000/svg">
<path d="M71.9333 78L44.6333 50.7C42.4667 52.4333 39.975 53.8056 37.1583 54.8167C34.3417 55.8278 31.3444 56.3333 28.1667 56.3333C20.2944 56.3333 13.6327 53.6062 8.18133 48.152C2.73 42.6978 0.00288889 36.036 0 28.1667C0 20.2944 2.72711 13.6327 8.18133 8.18133C13.6356 2.73 20.2973 0.00288889 28.1667 0C36.0389 0 42.7021 2.72711 48.1563 8.18133C53.6106 13.6356 56.3362 20.2973 56.3333 28.1667C56.3333 31.3444 55.8278 34.3417 54.8167 37.1583C53.8056 39.975 52.4333 42.4667 50.7 44.6333L78 71.9333L71.9333 78ZM28.1667 47.6667C33.5833 47.6667 38.1882 45.7716 41.9813 41.9813C45.7744 38.1911 47.6696 33.5862 47.6667 28.1667C47.6667 22.75 45.7716 18.1466 41.9813 14.3563C38.1911 10.5661 33.5862 8.66956 28.1667 8.66667C22.75 8.66667 18.1466 10.5632 14.3563 14.3563C10.5661 18.1494 8.66956 22.7529 8.66667 28.1667C8.66667 33.5833 10.5632 38.1882 14.3563 41.9813C18.1494 45.7744 22.7529 47.6696 28.1667 47.6667Z" fill="#999999"/>
</svg>
