<svg width="138" height="138" viewBox="0 0 138 138" fill="none" xmlns="http://www.w3.org/2000/svg">
<circle cx="69" cy="69" r="66.5" stroke="white" stroke-width="5"/>
<path d="M115.461 114.463C108.512 102.495 97.803 93.9138 85.3052 89.8458C91.4871 86.1799 96.2902 80.5939 98.9766 73.9456C101.663 67.2974 102.084 59.9545 100.176 53.0447C98.2675 46.1348 94.1348 40.04 88.4124 35.6962C82.69 31.3525 75.6945 29 68.5 29C61.3055 29 54.31 31.3525 48.5876 35.6962C42.8652 40.04 38.7325 46.1348 36.824 53.0447C34.9156 59.9545 35.3369 67.2974 38.0234 73.9456C40.7098 80.5939 45.5129 86.1799 51.6948 89.8458C39.197 93.9092 28.4879 102.491 21.5386 114.463C21.2837 114.877 21.1147 115.337 21.0415 115.817C20.9682 116.297 20.9922 116.787 21.1121 117.258C21.2319 117.729 21.4452 118.171 21.7393 118.558C22.0334 118.945 22.4024 119.27 22.8245 119.512C23.2466 119.755 23.7133 119.912 24.197 119.972C24.6807 120.032 25.1716 119.995 25.6407 119.864C26.1099 119.732 26.5478 119.508 26.9287 119.205C27.3095 118.902 27.6256 118.526 27.8582 118.099C36.4547 103.3 51.6492 94.4638 68.5 94.4638C85.3508 94.4638 100.545 103.3 109.142 118.099C109.374 118.526 109.69 118.902 110.071 119.205C110.452 119.508 110.89 119.732 111.359 119.864C111.828 119.995 112.319 120.032 112.803 119.972C113.287 119.912 113.753 119.755 114.175 119.512C114.598 119.27 114.967 118.945 115.261 118.558C115.555 118.171 115.768 117.729 115.888 117.258C116.008 116.787 116.032 116.297 115.959 115.817C115.885 115.337 115.716 114.877 115.461 114.463ZM42.9477 61.7381C42.9477 56.7039 44.4463 51.7827 47.2541 47.597C50.0618 43.4112 54.0525 40.1488 58.7216 38.2223C63.3906 36.2958 68.5283 35.7917 73.485 36.7738C78.4417 37.7559 82.9946 40.1801 86.5682 43.7398C90.1417 47.2996 92.5753 51.8349 93.5613 56.7724C94.5472 61.7098 94.0412 66.8276 92.1072 71.4786C90.1732 76.1296 86.8981 80.1049 82.6961 82.9017C78.494 85.6986 73.5538 87.1914 68.5 87.1914C61.7253 87.1842 55.2302 84.5002 50.4398 79.7283C45.6494 74.9565 42.955 68.4865 42.9477 61.7381Z" fill="white"/>
</svg>
