<svg width="44" height="32" viewBox="0 0 44 32" fill="none" xmlns="http://www.w3.org/2000/svg">
<path d="M40.6966 26.4763C40.3262 26.9439 39.7915 27.3314 39.1472 27.5992C38.503 27.867 37.7724 28.0053 37.0305 28H6.96952C6.22754 28.0053 5.49698 27.867 4.85274 27.5992C4.20851 27.3314 3.67379 26.9439 3.30343 26.4763C2.94204 26.0264 2.75159 25.5148 2.75159 24.9938C2.75159 24.4727 2.94204 23.9611 3.30343 23.5113L18.3305 4.52751C18.7061 4.06241 19.2423 3.67678 19.8859 3.40883C20.5296 3.14088 21.2583 2.99992 22 2.99992C22.7416 2.99992 23.4704 3.14088 24.1141 3.40883C24.7577 3.67678 25.2939 4.06241 25.6695 4.52751L40.7 23.5113C41.0609 23.9613 41.2507 24.4731 41.2501 24.9941C41.2495 25.5151 41.0585 26.0266 40.6966 26.4763Z" fill="#4ECB71"/>
</svg>
