<svg width="1520" height="990" viewBox="0 0 1520 990" fill="none" xmlns="http://www.w3.org/2000/svg">
<g clip-path="url(#clip0_1_2)" filter="url(#filter0_d_1_2)">
<rect width="1512" height="982" transform="translate(4)" fill="#383838"/>
<g clip-path="url(#clip1_1_2)">
<path fill-rule="evenodd" clip-rule="evenodd" d="M168 70H180.312V254.688H365V267H168V70ZM350.434 108.329C351.06 108.841 351.579 109.472 351.962 110.185C352.344 110.898 352.582 111.679 352.662 112.484C352.742 113.289 352.662 114.102 352.428 114.876C352.194 115.651 351.809 116.371 351.296 116.997L295.89 184.716C295.345 185.38 294.668 185.924 293.9 186.311C293.133 186.698 292.293 186.92 291.435 186.963C290.577 187.006 289.719 186.868 288.917 186.56C288.115 186.251 287.387 185.778 286.779 185.171L254.926 153.319L209.912 215.214C208.927 216.466 207.495 217.287 205.917 217.506C204.339 217.725 202.738 217.323 201.45 216.386C200.162 215.448 199.288 214.048 199.01 212.48C198.733 210.911 199.075 209.296 199.963 207.974L249.213 140.255C249.736 139.535 250.409 138.937 251.185 138.502C251.961 138.067 252.822 137.805 253.709 137.735C254.596 137.664 255.488 137.787 256.323 138.095C257.158 138.403 257.917 138.887 258.546 139.516L290.669 171.652L341.766 109.191C342.279 108.565 342.909 108.046 343.622 107.663C344.335 107.281 345.117 107.043 345.922 106.963C346.727 106.883 347.54 106.963 348.314 107.197C349.088 107.431 349.809 107.816 350.434 108.329Z" fill="#4ECB71"/>
</g>
<g clip-path="url(#clip2_1_2)">
<path fill-rule="evenodd" clip-rule="evenodd" d="M-55 282H-42.6875V466.688H142V479H-55V282ZM127.434 320.329C128.06 320.841 128.579 321.472 128.962 322.185C129.344 322.898 129.582 323.679 129.662 324.484C129.742 325.289 129.662 326.102 129.428 326.876C129.194 327.651 128.809 328.371 128.296 328.997L72.8899 396.716C72.3454 397.38 71.6677 397.924 70.9004 398.311C70.1332 398.698 69.2935 398.92 68.4353 398.963C67.5771 399.006 66.7194 398.868 65.9174 398.56C65.1154 398.251 64.3869 397.778 63.7787 397.171L31.9262 365.319L-13.0882 427.214C-14.073 428.466 -15.5047 429.287 -17.0826 429.506C-18.6605 429.725 -20.2617 429.323 -21.5497 428.386C-22.8378 427.448 -23.7123 426.048 -23.9896 424.48C-24.2669 422.911 -23.9254 421.296 -23.0368 419.974L26.2133 352.255C26.736 351.535 27.4086 350.937 28.1848 350.502C28.961 350.067 29.8223 349.805 30.7094 349.735C31.5965 349.664 32.4882 349.787 33.3232 350.095C34.1582 350.403 34.9166 350.887 35.5461 351.516L67.6694 383.652L118.766 321.191C119.279 320.565 119.909 320.046 120.622 319.663C121.335 319.281 122.117 319.043 122.922 318.963C123.727 318.883 124.54 318.963 125.314 319.197C126.088 319.431 126.809 319.816 127.434 320.329Z" fill="#4ECB71"/>
</g>
<g clip-path="url(#clip3_1_2)">
<path fill-rule="evenodd" clip-rule="evenodd" d="M-69 580H-56.6875V764.688H128V777H-69V580ZM113.434 618.329C114.06 618.841 114.579 619.472 114.962 620.185C115.344 620.898 115.582 621.679 115.662 622.484C115.742 623.289 115.662 624.102 115.428 624.876C115.194 625.651 114.809 626.371 114.296 626.997L58.8899 694.716C58.3454 695.38 57.6677 695.924 56.9004 696.311C56.1332 696.698 55.2935 696.92 54.4353 696.963C53.5771 697.006 52.7194 696.868 51.9174 696.56C51.1154 696.251 50.3869 695.778 49.7787 695.171L17.9262 663.319L-27.0882 725.214C-28.073 726.466 -29.5047 727.287 -31.0826 727.506C-32.6605 727.725 -34.2617 727.323 -35.5497 726.386C-36.8378 725.448 -37.7123 724.048 -37.9896 722.48C-38.2669 720.911 -37.9254 719.296 -37.0368 717.974L12.2133 650.255C12.736 649.535 13.4086 648.937 14.1848 648.502C14.961 648.067 15.8223 647.805 16.7094 647.735C17.5965 647.664 18.4882 647.787 19.3232 648.095C20.1582 648.403 20.9166 648.887 21.5461 649.516L53.6694 681.652L104.766 619.191C105.279 618.565 105.909 618.046 106.622 617.663C107.335 617.281 108.117 617.043 108.922 616.963C109.727 616.883 110.54 616.963 111.314 617.197C112.088 617.431 112.809 617.816 113.434 618.329Z" fill="#4ECB71"/>
</g>
<g clip-path="url(#clip4_1_2)">
<path fill-rule="evenodd" clip-rule="evenodd" d="M275 314H287.312V498.688H472V511H275V314ZM457.434 352.329C458.06 352.841 458.579 353.472 458.962 354.185C459.344 354.898 459.582 355.679 459.662 356.484C459.742 357.289 459.662 358.102 459.428 358.876C459.194 359.651 458.809 360.371 458.296 360.997L402.89 428.716C402.345 429.38 401.668 429.924 400.9 430.311C400.133 430.698 399.293 430.92 398.435 430.963C397.577 431.006 396.719 430.868 395.917 430.56C395.115 430.251 394.387 429.778 393.779 429.171L361.926 397.319L316.912 459.214C315.927 460.466 314.495 461.287 312.917 461.506C311.339 461.725 309.738 461.323 308.45 460.386C307.162 459.448 306.288 458.048 306.01 456.48C305.733 454.911 306.075 453.296 306.963 451.974L356.213 384.255C356.736 383.535 357.409 382.937 358.185 382.502C358.961 382.067 359.822 381.805 360.709 381.735C361.596 381.664 362.488 381.787 363.323 382.095C364.158 382.403 364.917 382.887 365.546 383.516L397.669 415.652L448.766 353.191C449.279 352.565 449.909 352.046 450.622 351.663C451.335 351.281 452.117 351.043 452.922 350.963C453.727 350.883 454.54 350.963 455.314 351.197C456.088 351.431 456.809 351.816 457.434 352.329Z" fill="#4ECB71"/>
</g>
<g clip-path="url(#clip5_1_2)">
<path fill-rule="evenodd" clip-rule="evenodd" d="M166 565H178.312V749.688H363V762H166V565ZM348.434 603.329C349.06 603.841 349.579 604.472 349.962 605.185C350.344 605.898 350.582 606.679 350.662 607.484C350.742 608.289 350.662 609.102 350.428 609.876C350.194 610.651 349.809 611.371 349.296 611.997L293.89 679.716C293.345 680.38 292.668 680.924 291.9 681.311C291.133 681.698 290.293 681.92 289.435 681.963C288.577 682.006 287.719 681.868 286.917 681.56C286.115 681.251 285.387 680.778 284.779 680.171L252.926 648.319L207.912 710.214C206.927 711.466 205.495 712.287 203.917 712.506C202.339 712.725 200.738 712.323 199.45 711.386C198.162 710.448 197.288 709.048 197.01 707.48C196.733 705.911 197.075 704.296 197.963 702.974L247.213 635.255C247.736 634.535 248.409 633.937 249.185 633.502C249.961 633.067 250.822 632.805 251.709 632.735C252.596 632.664 253.488 632.787 254.323 633.095C255.158 633.403 255.917 633.887 256.546 634.516L288.669 666.652L339.766 604.191C340.279 603.565 340.909 603.046 341.622 602.663C342.335 602.281 343.117 602.043 343.922 601.963C344.727 601.883 345.54 601.963 346.314 602.197C347.088 602.431 347.809 602.816 348.434 603.329Z" fill="#4ECB71"/>
</g>
<g clip-path="url(#clip6_1_2)">
<path fill-rule="evenodd" clip-rule="evenodd" d="M144 806H156.312V990.688H341V1003H144V806ZM326.434 844.329C327.06 844.841 327.579 845.472 327.962 846.185C328.344 846.898 328.582 847.679 328.662 848.484C328.742 849.289 328.662 850.102 328.428 850.876C328.194 851.651 327.809 852.371 327.296 852.997L271.89 920.716C271.345 921.38 270.668 921.924 269.9 922.311C269.133 922.698 268.293 922.92 267.435 922.963C266.577 923.006 265.719 922.868 264.917 922.56C264.115 922.251 263.387 921.778 262.779 921.171L230.926 889.319L185.912 951.214C184.927 952.466 183.495 953.287 181.917 953.506C180.339 953.725 178.738 953.323 177.45 952.386C176.162 951.448 175.288 950.048 175.01 948.48C174.733 946.911 175.075 945.296 175.963 943.974L225.213 876.255C225.736 875.535 226.409 874.937 227.185 874.502C227.961 874.067 228.822 873.805 229.709 873.735C230.596 873.664 231.488 873.787 232.323 874.095C233.158 874.403 233.917 874.887 234.546 875.516L266.669 907.652L317.766 845.191C318.279 844.565 318.909 844.046 319.622 843.663C320.335 843.281 321.117 843.043 321.922 842.963C322.727 842.883 323.54 842.963 324.314 843.197C325.088 843.431 325.809 843.816 326.434 844.329Z" fill="#4ECB71"/>
</g>
<g clip-path="url(#clip7_1_2)">
<path fill-rule="evenodd" clip-rule="evenodd" d="M384 636H396.312V820.688H581V833H384V636ZM566.434 674.329C567.06 674.841 567.579 675.472 567.962 676.185C568.344 676.898 568.582 677.679 568.662 678.484C568.742 679.289 568.662 680.102 568.428 680.876C568.194 681.651 567.809 682.371 567.296 682.997L511.89 750.716C511.345 751.38 510.668 751.924 509.9 752.311C509.133 752.698 508.293 752.92 507.435 752.963C506.577 753.006 505.719 752.868 504.917 752.56C504.115 752.251 503.387 751.778 502.779 751.171L470.926 719.319L425.912 781.214C424.927 782.466 423.495 783.287 421.917 783.506C420.339 783.725 418.738 783.323 417.45 782.386C416.162 781.448 415.288 780.048 415.01 778.48C414.733 776.911 415.075 775.296 415.963 773.974L465.213 706.255C465.736 705.535 466.409 704.937 467.185 704.502C467.961 704.067 468.822 703.805 469.709 703.735C470.596 703.664 471.488 703.787 472.323 704.095C473.158 704.403 473.917 704.887 474.546 705.516L506.669 737.652L557.766 675.191C558.279 674.565 558.909 674.046 559.622 673.663C560.335 673.281 561.117 673.043 561.922 672.963C562.727 672.883 563.54 672.963 564.314 673.197C565.088 673.431 565.809 673.816 566.434 674.329Z" fill="#4ECB71"/>
</g>
<g clip-path="url(#clip8_1_2)">
<path fill-rule="evenodd" clip-rule="evenodd" d="M493 386H505.312V570.688H690V583H493V386ZM675.434 424.329C676.06 424.841 676.579 425.472 676.962 426.185C677.344 426.898 677.582 427.679 677.662 428.484C677.742 429.289 677.662 430.102 677.428 430.876C677.194 431.651 676.809 432.371 676.296 432.997L620.89 500.716C620.345 501.38 619.668 501.924 618.9 502.311C618.133 502.698 617.293 502.92 616.435 502.963C615.577 503.006 614.719 502.868 613.917 502.56C613.115 502.251 612.387 501.778 611.779 501.171L579.926 469.319L534.912 531.214C533.927 532.466 532.495 533.287 530.917 533.506C529.339 533.725 527.738 533.323 526.45 532.386C525.162 531.448 524.288 530.048 524.01 528.48C523.733 526.911 524.075 525.296 524.963 523.974L574.213 456.255C574.736 455.535 575.409 454.937 576.185 454.502C576.961 454.067 577.822 453.805 578.709 453.735C579.596 453.664 580.488 453.787 581.323 454.095C582.158 454.403 582.917 454.887 583.546 455.516L615.669 487.652L666.766 425.191C667.279 424.565 667.909 424.046 668.622 423.663C669.335 423.281 670.117 423.043 670.922 422.963C671.727 422.883 672.54 422.963 673.314 423.197C674.088 423.431 674.809 423.816 675.434 424.329Z" fill="#4ECB71"/>
</g>
<g clip-path="url(#clip9_1_2)">
<path fill-rule="evenodd" clip-rule="evenodd" d="M559 112H571.312V296.688H756V309H559V112ZM741.434 150.329C742.06 150.841 742.579 151.472 742.962 152.185C743.344 152.898 743.582 153.679 743.662 154.484C743.742 155.289 743.662 156.102 743.428 156.876C743.194 157.651 742.809 158.371 742.296 158.997L686.89 226.716C686.345 227.38 685.668 227.924 684.9 228.311C684.133 228.698 683.293 228.92 682.435 228.963C681.577 229.006 680.719 228.868 679.917 228.56C679.115 228.251 678.387 227.778 677.779 227.171L645.926 195.319L600.912 257.214C599.927 258.466 598.495 259.287 596.917 259.506C595.339 259.725 593.738 259.323 592.45 258.386C591.162 257.448 590.288 256.048 590.01 254.48C589.733 252.911 590.075 251.296 590.963 249.974L640.213 182.255C640.736 181.535 641.409 180.937 642.185 180.502C642.961 180.067 643.822 179.805 644.709 179.735C645.596 179.664 646.488 179.787 647.323 180.095C648.158 180.403 648.917 180.887 649.546 181.516L681.669 213.652L732.766 151.191C733.279 150.565 733.909 150.046 734.622 149.663C735.335 149.281 736.117 149.043 736.922 148.963C737.727 148.883 738.54 148.963 739.314 149.197C740.088 149.431 740.809 149.816 741.434 150.329Z" fill="#4ECB71"/>
</g>
<g clip-path="url(#clip10_1_2)">
<path fill-rule="evenodd" clip-rule="evenodd" d="M870 -58H882.312V126.688H1067V139H870V-58ZM1052.43 -19.6712C1053.06 -19.1589 1053.58 -18.5282 1053.96 -17.8152C1054.34 -17.1022 1054.58 -16.3208 1054.66 -15.5158C1054.74 -14.7108 1054.66 -13.8979 1054.43 -13.1236C1054.19 -12.3493 1053.81 -11.6288 1053.3 -11.0032L997.89 56.7156C997.345 57.3803 996.668 57.9236 995.9 58.3106C995.133 58.6976 994.293 58.9197 993.435 58.9626C992.577 59.0055 991.719 58.8683 990.917 58.5597C990.115 58.2512 989.387 57.7782 988.779 57.1711L956.926 25.3187L911.912 87.2136C910.927 88.4658 909.495 89.2875 907.917 89.5061C906.339 89.7246 904.738 89.3231 903.45 88.3858C902.162 87.4484 901.288 86.0483 901.01 84.4797C900.733 82.911 901.075 81.296 901.963 79.9739L951.213 12.2551C951.736 11.535 952.409 10.9368 953.185 10.5017C953.961 10.0665 954.822 9.80486 955.709 9.73464C956.596 9.66443 957.488 9.78735 958.323 10.0949C959.158 10.4025 959.917 10.8875 960.546 11.5164L992.669 43.652L1043.77 -18.8093C1044.28 -19.4354 1044.91 -19.9544 1045.62 -20.3366C1046.34 -20.7188 1047.12 -20.9567 1047.92 -21.0368C1048.73 -21.1168 1049.54 -21.0374 1050.31 -20.8031C1051.09 -20.5688 1051.81 -20.1841 1052.43 -19.6712Z" fill="#4ECB71"/>
</g>
<g clip-path="url(#clip11_1_2)">
<path fill-rule="evenodd" clip-rule="evenodd" d="M717 524H729.312V708.688H914V721H717V524ZM899.434 562.329C900.06 562.841 900.579 563.472 900.962 564.185C901.344 564.898 901.582 565.679 901.662 566.484C901.742 567.289 901.662 568.102 901.428 568.876C901.194 569.651 900.809 570.371 900.296 570.997L844.89 638.716C844.345 639.38 843.668 639.924 842.9 640.311C842.133 640.698 841.293 640.92 840.435 640.963C839.577 641.006 838.719 640.868 837.917 640.56C837.115 640.251 836.387 639.778 835.779 639.171L803.926 607.319L758.912 669.214C757.927 670.466 756.495 671.287 754.917 671.506C753.339 671.725 751.738 671.323 750.45 670.386C749.162 669.448 748.288 668.048 748.01 666.48C747.733 664.911 748.075 663.296 748.963 661.974L798.213 594.255C798.736 593.535 799.409 592.937 800.185 592.502C800.961 592.067 801.822 591.805 802.709 591.735C803.596 591.664 804.488 591.787 805.323 592.095C806.158 592.403 806.917 592.887 807.546 593.516L839.669 625.652L890.766 563.191C891.279 562.565 891.909 562.046 892.622 561.663C893.335 561.281 894.117 561.043 894.922 560.963C895.727 560.883 896.54 560.963 897.314 561.197C898.088 561.431 898.809 561.816 899.434 562.329Z" fill="#4ECB71"/>
</g>
<g clip-path="url(#clip12_1_2)">
<path fill-rule="evenodd" clip-rule="evenodd" d="M716 721H728.312V905.688H913V918H716V721ZM898.434 759.329C899.06 759.841 899.579 760.472 899.962 761.185C900.344 761.898 900.582 762.679 900.662 763.484C900.742 764.289 900.662 765.102 900.428 765.876C900.194 766.651 899.809 767.371 899.296 767.997L843.89 835.716C843.345 836.38 842.668 836.924 841.9 837.311C841.133 837.698 840.293 837.92 839.435 837.963C838.577 838.006 837.719 837.868 836.917 837.56C836.115 837.251 835.387 836.778 834.779 836.171L802.926 804.319L757.912 866.214C756.927 867.466 755.495 868.287 753.917 868.506C752.339 868.725 750.738 868.323 749.45 867.386C748.162 866.448 747.288 865.048 747.01 863.48C746.733 861.911 747.075 860.296 747.963 858.974L797.213 791.255C797.736 790.535 798.409 789.937 799.185 789.502C799.961 789.067 800.822 788.805 801.709 788.735C802.596 788.664 803.488 788.787 804.323 789.095C805.158 789.403 805.917 789.887 806.546 790.516L838.669 822.652L889.766 760.191C890.279 759.565 890.909 759.046 891.622 758.663C892.335 758.281 893.117 758.043 893.922 757.963C894.727 757.883 895.54 757.963 896.314 758.197C897.088 758.431 897.809 758.816 898.434 759.329Z" fill="#4ECB71"/>
</g>
<g clip-path="url(#clip13_1_2)">
<path fill-rule="evenodd" clip-rule="evenodd" d="M1001 777H1013.31V961.688H1198V974H1001V777ZM1183.43 815.329C1184.06 815.841 1184.58 816.472 1184.96 817.185C1185.34 817.898 1185.58 818.679 1185.66 819.484C1185.74 820.289 1185.66 821.102 1185.43 821.876C1185.19 822.651 1184.81 823.371 1184.3 823.997L1128.89 891.716C1128.35 892.38 1127.67 892.924 1126.9 893.311C1126.13 893.698 1125.29 893.92 1124.44 893.963C1123.58 894.006 1122.72 893.868 1121.92 893.56C1121.12 893.251 1120.39 892.778 1119.78 892.171L1087.93 860.319L1042.91 922.214C1041.93 923.466 1040.5 924.287 1038.92 924.506C1037.34 924.725 1035.74 924.323 1034.45 923.386C1033.16 922.448 1032.29 921.048 1032.01 919.48C1031.73 917.911 1032.07 916.296 1032.96 914.974L1082.21 847.255C1082.74 846.535 1083.41 845.937 1084.18 845.502C1084.96 845.067 1085.82 844.805 1086.71 844.735C1087.6 844.664 1088.49 844.787 1089.32 845.095C1090.16 845.403 1090.92 845.887 1091.55 846.516L1123.67 878.652L1174.77 816.191C1175.28 815.565 1175.91 815.046 1176.62 814.663C1177.34 814.281 1178.12 814.043 1178.92 813.963C1179.73 813.883 1180.54 813.963 1181.31 814.197C1182.09 814.431 1182.81 814.816 1183.43 815.329Z" fill="#4ECB71"/>
</g>
<g clip-path="url(#clip14_1_2)">
<path fill-rule="evenodd" clip-rule="evenodd" d="M791 253H803.312V437.688H988V450H791V253ZM973.434 291.329C974.06 291.841 974.579 292.472 974.962 293.185C975.344 293.898 975.582 294.679 975.662 295.484C975.742 296.289 975.662 297.102 975.428 297.876C975.194 298.651 974.809 299.371 974.296 299.997L918.89 367.716C918.345 368.38 917.668 368.924 916.9 369.311C916.133 369.698 915.293 369.92 914.435 369.963C913.577 370.006 912.719 369.868 911.917 369.56C911.115 369.251 910.387 368.778 909.779 368.171L877.926 336.319L832.912 398.214C831.927 399.466 830.495 400.287 828.917 400.506C827.339 400.725 825.738 400.323 824.45 399.386C823.162 398.448 822.288 397.048 822.01 395.48C821.733 393.911 822.075 392.296 822.963 390.974L872.213 323.255C872.736 322.535 873.409 321.937 874.185 321.502C874.961 321.067 875.822 320.805 876.709 320.735C877.596 320.664 878.488 320.787 879.323 321.095C880.158 321.403 880.917 321.887 881.546 322.516L913.669 354.652L964.766 292.191C965.279 291.565 965.909 291.046 966.622 290.663C967.335 290.281 968.117 290.043 968.922 289.963C969.727 289.883 970.54 289.963 971.314 290.197C972.088 290.431 972.809 290.816 973.434 291.329Z" fill="#4ECB71"/>
</g>
<g clip-path="url(#clip15_1_2)">
<path fill-rule="evenodd" clip-rule="evenodd" d="M1351 70H1363.31V254.688H1548V267H1351V70ZM1533.43 108.329C1534.06 108.841 1534.58 109.472 1534.96 110.185C1535.34 110.898 1535.58 111.679 1535.66 112.484C1535.74 113.289 1535.66 114.102 1535.43 114.876C1535.19 115.651 1534.81 116.371 1534.3 116.997L1478.89 184.716C1478.35 185.38 1477.67 185.924 1476.9 186.311C1476.13 186.698 1475.29 186.92 1474.44 186.963C1473.58 187.006 1472.72 186.868 1471.92 186.56C1471.12 186.251 1470.39 185.778 1469.78 185.171L1437.93 153.319L1392.91 215.214C1391.93 216.466 1390.5 217.287 1388.92 217.506C1387.34 217.725 1385.74 217.323 1384.45 216.386C1383.16 215.448 1382.29 214.048 1382.01 212.48C1381.73 210.911 1382.07 209.296 1382.96 207.974L1432.21 140.255C1432.74 139.535 1433.41 138.937 1434.18 138.502C1434.96 138.067 1435.82 137.805 1436.71 137.735C1437.6 137.664 1438.49 137.787 1439.32 138.095C1440.16 138.403 1440.92 138.887 1441.55 139.516L1473.67 171.652L1524.77 109.191C1525.28 108.565 1525.91 108.046 1526.62 107.663C1527.34 107.281 1528.12 107.043 1528.92 106.963C1529.73 106.883 1530.54 106.963 1531.31 107.197C1532.09 107.431 1532.81 107.816 1533.43 108.329Z" fill="#4ECB71"/>
</g>
<g clip-path="url(#clip16_1_2)">
<path fill-rule="evenodd" clip-rule="evenodd" d="M1152 580H1164.31V764.688H1349V777H1152V580ZM1334.43 618.329C1335.06 618.841 1335.58 619.472 1335.96 620.185C1336.34 620.898 1336.58 621.679 1336.66 622.484C1336.74 623.289 1336.66 624.102 1336.43 624.876C1336.19 625.651 1335.81 626.371 1335.3 626.997L1279.89 694.716C1279.35 695.38 1278.67 695.924 1277.9 696.311C1277.13 696.698 1276.29 696.92 1275.44 696.963C1274.58 697.006 1273.72 696.868 1272.92 696.56C1272.12 696.251 1271.39 695.778 1270.78 695.171L1238.93 663.319L1193.91 725.214C1192.93 726.466 1191.5 727.287 1189.92 727.506C1188.34 727.725 1186.74 727.323 1185.45 726.386C1184.16 725.448 1183.29 724.048 1183.01 722.48C1182.73 720.911 1183.07 719.296 1183.96 717.974L1233.21 650.255C1233.74 649.535 1234.41 648.937 1235.18 648.502C1235.96 648.067 1236.82 647.805 1237.71 647.735C1238.6 647.664 1239.49 647.787 1240.32 648.095C1241.16 648.403 1241.92 648.887 1242.55 649.516L1274.67 681.652L1325.77 619.191C1326.28 618.565 1326.91 618.046 1327.62 617.663C1328.34 617.281 1329.12 617.043 1329.92 616.963C1330.73 616.883 1331.54 616.963 1332.31 617.197C1333.09 617.431 1333.81 617.816 1334.43 618.329Z" fill="#4ECB71"/>
</g>
<g clip-path="url(#clip17_1_2)">
<path fill-rule="evenodd" clip-rule="evenodd" d="M1304 777H1316.31V961.688H1501V974H1304V777ZM1486.43 815.329C1487.06 815.841 1487.58 816.472 1487.96 817.185C1488.34 817.898 1488.58 818.679 1488.66 819.484C1488.74 820.289 1488.66 821.102 1488.43 821.876C1488.19 822.651 1487.81 823.371 1487.3 823.997L1431.89 891.716C1431.35 892.38 1430.67 892.924 1429.9 893.311C1429.13 893.698 1428.29 893.92 1427.44 893.963C1426.58 894.006 1425.72 893.868 1424.92 893.56C1424.12 893.251 1423.39 892.778 1422.78 892.171L1390.93 860.319L1345.91 922.214C1344.93 923.466 1343.5 924.287 1341.92 924.506C1340.34 924.725 1338.74 924.323 1337.45 923.386C1336.16 922.448 1335.29 921.048 1335.01 919.48C1334.73 917.911 1335.07 916.296 1335.96 914.974L1385.21 847.255C1385.74 846.535 1386.41 845.937 1387.18 845.502C1387.96 845.067 1388.82 844.805 1389.71 844.735C1390.6 844.664 1391.49 844.787 1392.32 845.095C1393.16 845.403 1393.92 845.887 1394.55 846.516L1426.67 878.652L1477.77 816.191C1478.28 815.565 1478.91 815.046 1479.62 814.663C1480.34 814.281 1481.12 814.043 1481.92 813.963C1482.73 813.883 1483.54 813.963 1484.31 814.197C1485.09 814.431 1485.81 814.816 1486.43 815.329Z" fill="#4ECB71"/>
</g>
<g clip-path="url(#clip18_1_2)">
<path fill-rule="evenodd" clip-rule="evenodd" d="M1351 383H1363.31V567.688H1548V580H1351V383ZM1533.43 421.329C1534.06 421.841 1534.58 422.472 1534.96 423.185C1535.34 423.898 1535.58 424.679 1535.66 425.484C1535.74 426.289 1535.66 427.102 1535.43 427.876C1535.19 428.651 1534.81 429.371 1534.3 429.997L1478.89 497.716C1478.35 498.38 1477.67 498.924 1476.9 499.311C1476.13 499.698 1475.29 499.92 1474.44 499.963C1473.58 500.006 1472.72 499.868 1471.92 499.56C1471.12 499.251 1470.39 498.778 1469.78 498.171L1437.93 466.319L1392.91 528.214C1391.93 529.466 1390.5 530.287 1388.92 530.506C1387.34 530.725 1385.74 530.323 1384.45 529.386C1383.16 528.448 1382.29 527.048 1382.01 525.48C1381.73 523.911 1382.07 522.296 1382.96 520.974L1432.21 453.255C1432.74 452.535 1433.41 451.937 1434.18 451.502C1434.96 451.067 1435.82 450.805 1436.71 450.735C1437.6 450.664 1438.49 450.787 1439.32 451.095C1440.16 451.403 1440.92 451.887 1441.55 452.516L1473.67 484.652L1524.77 422.191C1525.28 421.565 1525.91 421.046 1526.62 420.663C1527.34 420.281 1528.12 420.043 1528.92 419.963C1529.73 419.883 1530.54 419.963 1531.31 420.197C1532.09 420.431 1532.81 420.816 1533.43 421.329Z" fill="#4ECB71"/>
</g>
<g clip-path="url(#clip19_1_2)">
<path fill-rule="evenodd" clip-rule="evenodd" d="M966 498H978.312V682.688H1163V695H966V498ZM1148.43 536.329C1149.06 536.841 1149.58 537.472 1149.96 538.185C1150.34 538.898 1150.58 539.679 1150.66 540.484C1150.74 541.289 1150.66 542.102 1150.43 542.876C1150.19 543.651 1149.81 544.371 1149.3 544.997L1093.89 612.716C1093.35 613.38 1092.67 613.924 1091.9 614.311C1091.13 614.698 1090.29 614.92 1089.44 614.963C1088.58 615.006 1087.72 614.868 1086.92 614.56C1086.12 614.251 1085.39 613.778 1084.78 613.171L1052.93 581.319L1007.91 643.214C1006.93 644.466 1005.5 645.287 1003.92 645.506C1002.34 645.725 1000.74 645.323 999.45 644.386C998.162 643.448 997.288 642.048 997.01 640.48C996.733 638.911 997.075 637.296 997.963 635.974L1047.21 568.255C1047.74 567.535 1048.41 566.937 1049.18 566.502C1049.96 566.067 1050.82 565.805 1051.71 565.735C1052.6 565.664 1053.49 565.787 1054.32 566.095C1055.16 566.403 1055.92 566.887 1056.55 567.516L1088.67 599.652L1139.77 537.191C1140.28 536.565 1140.91 536.046 1141.62 535.663C1142.34 535.281 1143.12 535.043 1143.92 534.963C1144.73 534.883 1145.54 534.963 1146.31 535.197C1147.09 535.431 1147.81 535.816 1148.43 536.329Z" fill="#4ECB71"/>
</g>
<g clip-path="url(#clip20_1_2)">
<path fill-rule="evenodd" clip-rule="evenodd" d="M1064 298H1076.31V482.688H1261V495H1064V298ZM1246.43 336.329C1247.06 336.841 1247.58 337.472 1247.96 338.185C1248.34 338.898 1248.58 339.679 1248.66 340.484C1248.74 341.289 1248.66 342.102 1248.43 342.876C1248.19 343.651 1247.81 344.371 1247.3 344.997L1191.89 412.716C1191.35 413.38 1190.67 413.924 1189.9 414.311C1189.13 414.698 1188.29 414.92 1187.44 414.963C1186.58 415.006 1185.72 414.868 1184.92 414.56C1184.12 414.251 1183.39 413.778 1182.78 413.171L1150.93 381.319L1105.91 443.214C1104.93 444.466 1103.5 445.287 1101.92 445.506C1100.34 445.725 1098.74 445.323 1097.45 444.386C1096.16 443.448 1095.29 442.048 1095.01 440.48C1094.73 438.911 1095.07 437.296 1095.96 435.974L1145.21 368.255C1145.74 367.535 1146.41 366.937 1147.18 366.502C1147.96 366.067 1148.82 365.805 1149.71 365.735C1150.6 365.664 1151.49 365.787 1152.32 366.095C1153.16 366.403 1153.92 366.887 1154.55 367.516L1186.67 399.652L1237.77 337.191C1238.28 336.565 1238.91 336.046 1239.62 335.663C1240.34 335.281 1241.12 335.043 1241.92 334.963C1242.73 334.883 1243.54 334.963 1244.31 335.197C1245.09 335.431 1245.81 335.816 1246.43 336.329Z" fill="#4ECB71"/>
</g>
<g clip-path="url(#clip21_1_2)">
<path fill-rule="evenodd" clip-rule="evenodd" d="M433 -42H445.312V142.688H630V155H433V-42ZM615.434 -3.67119C616.06 -3.15888 616.579 -2.52819 616.962 -1.81519C617.344 -1.10218 617.582 -0.320834 617.662 0.484182C617.742 1.2892 617.662 2.10209 617.428 2.8764C617.194 3.65071 616.809 4.37124 616.296 4.99681L560.89 72.7156C560.345 73.3803 559.668 73.9236 558.9 74.3106C558.133 74.6976 557.293 74.9197 556.435 74.9626C555.577 75.0055 554.719 74.8683 553.917 74.5597C553.115 74.2512 552.387 73.7782 551.779 73.1711L519.926 41.3187L474.912 103.214C473.927 104.466 472.495 105.287 470.917 105.506C469.339 105.725 467.738 105.323 466.45 104.386C465.162 103.448 464.288 102.048 464.01 100.48C463.733 98.911 464.075 97.296 464.963 95.9739L514.213 28.2551C514.736 27.535 515.409 26.9368 516.185 26.5017C516.961 26.0665 517.822 25.8049 518.709 25.7346C519.596 25.6644 520.488 25.7873 521.323 26.0949C522.158 26.4025 522.917 26.8875 523.546 27.5164L555.669 59.652L606.766 -2.80931C607.279 -3.43541 607.909 -3.95439 608.622 -4.33659C609.335 -4.71879 610.117 -4.95672 610.922 -5.03676C611.727 -5.11681 612.54 -5.0374 613.314 -4.80309C614.088 -4.56877 614.809 -4.18414 615.434 -3.67119Z" fill="#4ECB71"/>
</g>
<g clip-path="url(#clip22_1_2)">
<path fill-rule="evenodd" clip-rule="evenodd" d="M498 863H510.312V1047.69H695V1060H498V863ZM680.434 901.329C681.06 901.841 681.579 902.472 681.962 903.185C682.344 903.898 682.582 904.679 682.662 905.484C682.742 906.289 682.662 907.102 682.428 907.876C682.194 908.651 681.809 909.371 681.296 909.997L625.89 977.716C625.345 978.38 624.668 978.924 623.9 979.311C623.133 979.698 622.293 979.92 621.435 979.963C620.577 980.006 619.719 979.868 618.917 979.56C618.115 979.251 617.387 978.778 616.779 978.171L584.926 946.319L539.912 1008.21C538.927 1009.47 537.495 1010.29 535.917 1010.51C534.339 1010.72 532.738 1010.32 531.45 1009.39C530.162 1008.45 529.288 1007.05 529.01 1005.48C528.733 1003.91 529.075 1002.3 529.963 1000.97L579.213 933.255C579.736 932.535 580.409 931.937 581.185 931.502C581.961 931.067 582.822 930.805 583.709 930.735C584.596 930.664 585.488 930.787 586.323 931.095C587.158 931.403 587.917 931.887 588.546 932.516L620.669 964.652L671.766 902.191C672.279 901.565 672.909 901.046 673.622 900.663C674.335 900.281 675.117 900.043 675.922 899.963C676.727 899.883 677.54 899.963 678.314 900.197C679.088 900.431 679.809 900.816 680.434 901.329Z" fill="#4ECB71"/>
</g>
<g clip-path="url(#clip23_1_2)">
<path fill-rule="evenodd" clip-rule="evenodd" d="M1107 16H1119.31V200.688H1304V213H1107V16ZM1289.43 54.3288C1290.06 54.8411 1290.58 55.4718 1290.96 56.1848C1291.34 56.8978 1291.58 57.6792 1291.66 58.4842C1291.74 59.2892 1291.66 60.1021 1291.43 60.8764C1291.19 61.6507 1290.81 62.3712 1290.3 62.9968L1234.89 130.716C1234.35 131.38 1233.67 131.924 1232.9 132.311C1232.13 132.698 1231.29 132.92 1230.44 132.963C1229.58 133.006 1228.72 132.868 1227.92 132.56C1227.12 132.251 1226.39 131.778 1225.78 131.171L1193.93 99.3187L1148.91 161.214C1147.93 162.466 1146.5 163.287 1144.92 163.506C1143.34 163.725 1141.74 163.323 1140.45 162.386C1139.16 161.448 1138.29 160.048 1138.01 158.48C1137.73 156.911 1138.07 155.296 1138.96 153.974L1188.21 86.2551C1188.74 85.535 1189.41 84.9368 1190.18 84.5017C1190.96 84.0665 1191.82 83.8049 1192.71 83.7346C1193.6 83.6644 1194.49 83.7873 1195.32 84.0949C1196.16 84.4025 1196.92 84.8875 1197.55 85.5164L1229.67 117.652L1280.77 55.1907C1281.28 54.5646 1281.91 54.0456 1282.62 53.6634C1283.34 53.2812 1284.12 53.0433 1284.92 52.9632C1285.73 52.8832 1286.54 52.9626 1287.31 53.1969C1288.09 53.4312 1288.81 53.8159 1289.43 54.3288Z" fill="#4ECB71"/>
</g>
<g filter="url(#filter1_b_1_2)">
<rect x="4" width="1512" height="1003" fill="url(#paint0_linear_1_2)" fill-opacity="0.66"/>
</g>
</g>
<defs>
<filter id="filter0_d_1_2" x="0" y="0" width="1520" height="990" filterUnits="userSpaceOnUse" color-interpolation-filters="sRGB">
<feFlood flood-opacity="0" result="BackgroundImageFix"/>
<feColorMatrix in="SourceAlpha" type="matrix" values="0 0 0 0 0 0 0 0 0 0 0 0 0 0 0 0 0 0 127 0" result="hardAlpha"/>
<feOffset dy="4"/>
<feGaussianBlur stdDeviation="2"/>
<feComposite in2="hardAlpha" operator="out"/>
<feColorMatrix type="matrix" values="0 0 0 0 0 0 0 0 0 0 0 0 0 0 0 0 0 0 0.25 0"/>
<feBlend mode="normal" in2="BackgroundImageFix" result="effect1_dropShadow_1_2"/>
<feBlend mode="normal" in="SourceGraphic" in2="effect1_dropShadow_1_2" result="shape"/>
</filter>
<filter id="filter1_b_1_2" x="-46" y="-50" width="1612" height="1103" filterUnits="userSpaceOnUse" color-interpolation-filters="sRGB">
<feFlood flood-opacity="0" result="BackgroundImageFix"/>
<feGaussianBlur in="BackgroundImageFix" stdDeviation="25"/>
<feComposite in2="SourceAlpha" operator="in" result="effect1_backgroundBlur_1_2"/>
<feBlend mode="normal" in="SourceGraphic" in2="effect1_backgroundBlur_1_2" result="shape"/>
</filter>
<linearGradient id="paint0_linear_1_2" x1="760" y1="0" x2="760" y2="1003" gradientUnits="userSpaceOnUse">
<stop stop-color="#787878"/>
<stop offset="1"/>
</linearGradient>
<clipPath id="clip0_1_2">
<rect width="1512" height="982" fill="white" transform="translate(4)"/>
</clipPath>
<clipPath id="clip1_1_2">
<rect width="175" height="170" fill="white" transform="translate(190 70)"/>
</clipPath>
<clipPath id="clip2_1_2">
<rect width="175" height="170" fill="white" transform="translate(-33 282)"/>
</clipPath>
<clipPath id="clip3_1_2">
<rect width="175" height="170" fill="white" transform="translate(-47 580)"/>
</clipPath>
<clipPath id="clip4_1_2">
<rect width="175" height="170" fill="white" transform="translate(297 314)"/>
</clipPath>
<clipPath id="clip5_1_2">
<rect width="175" height="170" fill="white" transform="translate(188 565)"/>
</clipPath>
<clipPath id="clip6_1_2">
<rect width="175" height="170" fill="white" transform="translate(166 806)"/>
</clipPath>
<clipPath id="clip7_1_2">
<rect width="175" height="170" fill="white" transform="translate(406 636)"/>
</clipPath>
<clipPath id="clip8_1_2">
<rect width="175" height="170" fill="white" transform="translate(515 386)"/>
</clipPath>
<clipPath id="clip9_1_2">
<rect width="175" height="170" fill="white" transform="translate(581 112)"/>
</clipPath>
<clipPath id="clip10_1_2">
<rect width="175" height="170" fill="white" transform="translate(892 -58)"/>
</clipPath>
<clipPath id="clip11_1_2">
<rect width="175" height="170" fill="white" transform="translate(739 524)"/>
</clipPath>
<clipPath id="clip12_1_2">
<rect width="175" height="170" fill="white" transform="translate(738 721)"/>
</clipPath>
<clipPath id="clip13_1_2">
<rect width="175" height="170" fill="white" transform="translate(1023 777)"/>
</clipPath>
<clipPath id="clip14_1_2">
<rect width="175" height="170" fill="white" transform="translate(813 253)"/>
</clipPath>
<clipPath id="clip15_1_2">
<rect width="175" height="170" fill="white" transform="translate(1373 70)"/>
</clipPath>
<clipPath id="clip16_1_2">
<rect width="175" height="170" fill="white" transform="translate(1174 580)"/>
</clipPath>
<clipPath id="clip17_1_2">
<rect width="175" height="170" fill="white" transform="translate(1326 777)"/>
</clipPath>
<clipPath id="clip18_1_2">
<rect width="175" height="170" fill="white" transform="translate(1373 383)"/>
</clipPath>
<clipPath id="clip19_1_2">
<rect width="175" height="170" fill="white" transform="translate(988 498)"/>
</clipPath>
<clipPath id="clip20_1_2">
<rect width="175" height="170" fill="white" transform="translate(1086 298)"/>
</clipPath>
<clipPath id="clip21_1_2">
<rect width="175" height="170" fill="white" transform="translate(455 -42)"/>
</clipPath>
<clipPath id="clip22_1_2">
<rect width="175" height="170" fill="white" transform="translate(520 863)"/>
</clipPath>
<clipPath id="clip23_1_2">
<rect width="175" height="170" fill="white" transform="translate(1129 16)"/>
</clipPath>
</defs>
</svg>
