<svg width="16" height="16" viewBox="0 0 16 16" fill="none" xmlns="http://www.w3.org/2000/svg">
<path fill-rule="evenodd" clip-rule="evenodd" d="M9.00001 2H7.00001C6.8674 2 6.74022 2.05268 6.64645 2.14645C6.55269 2.24021 6.50001 2.36739 6.50001 2.5V3H9.50001V2.5C9.50001 2.36739 9.44733 2.24021 9.35356 2.14645C9.25979 2.05268 9.13262 2 9.00001 2ZM11 3V2.5C11 1.96957 10.7893 1.46086 10.4142 1.08579C10.0391 0.710714 9.53044 0.5 9.00001 0.5H7.00001C6.46957 0.5 5.96087 0.710714 5.58579 1.08579C5.21072 1.46086 5.00001 1.96957 5.00001 2.5V3H2.25101C2.05209 3 1.86133 3.07902 1.72068 3.21967C1.58002 3.36032 1.50101 3.55109 1.50101 3.75C1.50101 3.94891 1.58002 4.13968 1.72068 4.28033C1.86133 4.42098 2.05209 4.5 2.25101 4.5H2.56301L2.88001 12.125C2.91226 12.8984 3.24224 13.6295 3.80096 14.1653C4.35969 14.7011 5.10389 15.0002 5.87801 15H10.123C10.8969 14.9999 11.6409 14.7007 12.1994 14.1649C12.7579 13.6292 13.0878 12.8983 13.12 12.125L13.438 4.5H13.75C13.9489 4.5 14.1397 4.42098 14.2803 4.28033C14.421 4.13968 14.5 3.94891 14.5 3.75C14.5 3.55109 14.421 3.36032 14.2803 3.21967C14.1397 3.07902 13.9489 3 13.75 3H11ZM11.936 4.5H4.06401L4.37901 12.062C4.39501 12.4488 4.55994 12.8145 4.83932 13.0825C5.11869 13.3505 5.49087 13.5001 5.87801 13.5H10.123C10.51 13.4998 10.8819 13.3501 11.1611 13.0821C11.4402 12.8141 11.605 12.4486 11.621 12.062L11.936 4.5ZM5.75001 6.5V11.5C5.75001 11.6989 5.82902 11.8897 5.96968 12.0303C6.11033 12.171 6.30109 12.25 6.50001 12.25C6.69892 12.25 6.88969 12.171 7.03034 12.0303C7.17099 11.8897 7.25001 11.6989 7.25001 11.5V6.5C7.25001 6.30109 7.17099 6.11032 7.03034 5.96967C6.88969 5.82902 6.69892 5.75 6.50001 5.75C6.30109 5.75 6.11033 5.82902 5.96968 5.96967C5.82902 6.11032 5.75001 6.30109 5.75001 6.5ZM9.50001 5.75C9.69892 5.75 9.88968 5.82902 10.0303 5.96967C10.171 6.11032 10.25 6.30109 10.25 6.5V11.5C10.25 11.6989 10.171 11.8897 10.0303 12.0303C9.88968 12.171 9.69892 12.25 9.50001 12.25C9.30109 12.25 9.11033 12.171 8.96968 12.0303C8.82903 11.8897 8.75001 11.6989 8.75001 11.5V6.5C8.75001 6.30109 8.82903 6.11032 8.96968 5.96967C9.11033 5.82902 9.30109 5.75 9.50001 5.75Z" fill="#999999"/>
</svg>
