<svg width="38" height="37" viewBox="0 0 38 37" fill="none" xmlns="http://www.w3.org/2000/svg">
<g clip-path="url(#clip0_50_18)">
<path fill-rule="evenodd" clip-rule="evenodd" d="M19.2072 21.4493L18.8593 21.2542L18.5113 21.4493L18.589 21.0576L18.2963 20.7865L18.6923 20.7394L18.8593 20.3768L19.0262 20.7394L19.4222 20.7865L19.1295 21.0576L19.2072 21.4493ZM19.1647 21.3907L19.0966 21.0469L19.3535 20.8088L19.006 20.7675L18.8594 20.4491L18.7127 20.7675L18.365 20.8088L18.622 21.0469L18.5538 21.3907L18.8593 21.2195L19.1647 21.3907Z" fill="#808080"/>
<path d="M18.8593 21.2542L23.1425 14.3222L18.8593 11.9211L14.576 14.3222L18.8593 21.2542ZM19.2072 21.4493L14.924 28.3812L30.9593 37.3707L27.5048 19.9559L19.2072 21.4493ZM18.5114 21.4493L10.2137 19.9559L6.75928 37.3707L22.7945 28.3812L18.5114 21.4493ZM18.5891 21.0576L26.8867 22.5509L27.7291 18.3041L24.4761 15.291L18.5891 21.0576ZM18.2963 20.7865L17.2513 12.8048L-0.196472 14.8772L12.4093 26.553L18.2963 20.7865ZM18.6923 20.7394L19.7373 28.7211L24.4984 28.1556L26.4256 23.9703L18.6923 20.7394ZM18.8593 20.3768L26.5926 17.1459L18.8593 0.351959L11.126 17.1459L18.8593 20.3768ZM19.0263 20.7394L11.2929 23.9703L13.2202 28.1556L17.9813 28.7211L19.0263 20.7394ZM19.4222 20.7865L25.3093 26.553L37.915 14.8772L20.4672 12.8048L19.4222 20.7865ZM19.1295 21.0576L13.2425 15.291L9.98945 18.3041L10.8319 22.5509L19.1295 21.0576ZM19.0966 21.0469L13.209 15.2807L9.9568 18.2937L10.7989 22.5399L19.0966 21.0469ZM19.1647 21.3907L14.8819 28.323L30.9157 37.3104L27.4625 19.8977L19.1647 21.3907ZM19.3536 20.8088L25.2411 26.5749L37.8452 14.8987L20.3982 12.8271L19.3536 20.8088ZM19.006 20.7675L11.2727 23.9985L13.2 28.1838L17.9613 28.7492L19.006 20.7675ZM18.8594 20.4491L26.5926 17.2182L18.8604 0.427193L11.1264 17.2174L18.8594 20.4491ZM18.7127 20.7675L19.7554 28.7494L24.5175 28.185L26.4455 23.9993L18.7127 20.7675ZM18.365 20.8088L17.3222 12.8269L-0.130076 14.8954L12.4775 26.5749L18.365 20.8088ZM18.622 21.0469L26.9197 22.5399L27.7619 18.2937L24.5095 15.2808L18.622 21.0469ZM18.5538 21.3907L10.2561 19.8977L6.80241 37.3127L22.8374 28.3226L18.5538 21.3907ZM18.8593 21.2196L23.1421 14.2873L18.8588 11.8863L14.5757 14.2877L18.8593 21.2196ZM14.576 28.1862L14.924 28.3812L23.4904 14.5173L23.1425 14.3222L14.576 28.1862ZM22.7945 28.3812L23.1425 28.1862L14.576 14.3222L14.2281 14.5173L22.7945 28.3812ZM10.2914 19.5642L10.2137 19.9559L26.809 22.9427L26.8867 22.5509L10.2914 19.5642ZM12.4093 26.553L12.702 26.8242L24.4761 15.291L24.1833 15.0199L12.4093 26.553ZM17.6473 12.7578L17.2513 12.8048L19.3413 28.7681L19.7373 28.7211L17.6473 12.7578ZM11.126 17.1459L10.959 17.5086L26.4256 23.9703L26.5926 23.6077L11.126 17.1459ZM26.7596 17.5086L26.5926 17.1459L11.126 23.6077L11.2929 23.9703L26.7596 17.5086ZM20.4672 12.8048L20.0712 12.7578L17.9813 28.7211L18.3773 28.7681L20.4672 12.8048ZM25.0165 26.8242L25.3093 26.553L13.5352 15.0199L13.2425 15.291L25.0165 26.8242ZM27.5048 19.9559L27.4271 19.5642L10.8319 22.5509L10.9096 22.9427L27.5048 19.9559ZM10.7989 22.5399L10.8671 22.8838L27.4625 19.8977L27.3942 19.5538L10.7989 22.5399ZM13.4661 15.0426L13.209 15.2807L24.9841 26.813L25.2411 26.5749L13.4661 15.0426ZM17.9613 28.7492L18.309 28.7905L20.3982 12.8271L20.0505 12.7858L17.9613 28.7492ZM11.1261 23.6801L11.2727 23.9985L26.7392 17.5365L26.5926 17.2182L11.1261 23.6801ZM26.4455 23.9993L26.5922 23.6809L11.1264 17.2174L10.9798 17.5359L26.4455 23.9993ZM19.4077 28.7907L19.7554 28.7494L17.6698 12.7856L17.3222 12.8269L19.4077 28.7907ZM24.5095 15.2808L24.2525 15.0426L12.4775 26.5749L12.7346 26.813L24.5095 15.2808ZM26.8515 22.8838L26.9197 22.5399L10.3243 19.5538L10.2561 19.8977L26.8515 22.8838ZM14.5757 14.2877L14.2703 14.459L22.8374 28.3226L23.1429 28.1513L14.5757 14.2877ZM23.4475 14.4585L23.1421 14.2873L14.5765 28.1517L14.8819 28.323L23.4475 14.4585Z" fill="#808080"/>
</g>
<defs>
<clipPath id="clip0_50_18">
<rect width="38" height="37" fill="white"/>
</clipPath>
</defs>
</svg>
