<svg width="195" height="205" viewBox="0 0 195 205" fill="none" xmlns="http://www.w3.org/2000/svg">
<path fill-rule="evenodd" clip-rule="evenodd" d="M146.386 168.851L97.5 141.486L48.6139 168.851L59.5306 113.9L18.4004 75.8614L74.0388 69.2627L97.5 18.3897L120.961 69.2627L176.6 75.8614L135.469 113.9L146.386 168.851ZM140.426 160.641L130.844 112.397L166.957 78.9924L118.109 73.2009L97.5088 28.5342L76.9001 73.2083L28.0486 78.99L64.1646 112.397L54.5822 160.643L97.5003 136.616L140.426 160.641Z" fill="#808080"/>
<path d="M35.8607 204V185.818H47.5084V188.579H39.1544V193.515H46.7094V196.276H39.1544V204H35.8607ZM55.919 204.275C55.0549 204.275 54.2766 204.121 53.5842 203.814C52.8976 203.5 52.3531 203.038 51.9506 202.429C51.5541 201.819 51.3558 201.067 51.3558 200.174C51.3558 199.404 51.4979 198.768 51.782 198.265C52.0661 197.762 52.4537 197.359 52.945 197.058C53.4362 196.756 53.9896 196.528 54.6051 196.374C55.2266 196.214 55.8687 196.099 56.5316 196.028C57.3306 195.945 57.9787 195.871 58.4759 195.806C58.973 195.735 59.334 195.628 59.5589 195.486C59.7898 195.338 59.9052 195.11 59.9052 194.803V194.749C59.9052 194.08 59.7069 193.563 59.3104 193.196C58.9138 192.829 58.3427 192.645 57.5969 192.645C56.8098 192.645 56.1854 192.817 55.7237 193.16C55.268 193.503 54.9602 193.909 54.8004 194.376L51.7997 193.95C52.0365 193.122 52.4271 192.429 52.9716 191.873C53.5161 191.311 54.1819 190.89 54.9691 190.612C55.7563 190.328 56.6263 190.186 57.5792 190.186C58.2362 190.186 58.8902 190.263 59.5412 190.417C60.1922 190.571 60.7871 190.825 61.3256 191.18C61.8642 191.53 62.2963 192.006 62.6218 192.61C62.9532 193.213 63.119 193.968 63.119 194.874V204H60.0295V202.127H59.9229C59.7276 202.506 59.4524 202.861 59.0973 203.192C58.7481 203.518 58.3072 203.781 57.7745 203.982C57.2478 204.178 56.6293 204.275 55.919 204.275ZM56.7536 201.914C57.3987 201.914 57.958 201.786 58.4315 201.532C58.9049 201.272 59.2689 200.928 59.5234 200.502C59.7839 200.076 59.9141 199.611 59.9141 199.108V197.501C59.8134 197.584 59.6418 197.661 59.3991 197.732C59.1624 197.803 58.8961 197.865 58.6001 197.919C58.3042 197.972 58.0112 198.019 57.7212 198.061C57.4312 198.102 57.1797 198.138 56.9666 198.167C56.4872 198.232 56.0581 198.339 55.6793 198.487C55.3005 198.635 55.0017 198.842 54.7827 199.108C54.5637 199.369 54.4542 199.706 54.4542 200.12C54.4542 200.712 54.6702 201.159 55.1023 201.461C55.5343 201.763 56.0848 201.914 56.7536 201.914ZM79.7926 190.364L74.9364 204H71.3853L66.5291 190.364H69.956L73.0898 200.493H73.2319L76.3746 190.364H79.7926ZM89.2508 204.266C87.9191 204.266 86.765 203.973 85.7884 203.387C84.8119 202.801 84.0543 201.982 83.5157 200.928C82.983 199.875 82.7167 198.644 82.7167 197.235C82.7167 195.826 82.983 194.592 83.5157 193.533C84.0543 192.474 84.8119 191.651 85.7884 191.065C86.765 190.479 87.9191 190.186 89.2508 190.186C90.5825 190.186 91.7366 190.479 92.7132 191.065C93.6897 191.651 94.4443 192.474 94.977 193.533C95.5156 194.592 95.7849 195.826 95.7849 197.235C95.7849 198.644 95.5156 199.875 94.977 200.928C94.4443 201.982 93.6897 202.801 92.7132 203.387C91.7366 203.973 90.5825 204.266 89.2508 204.266ZM89.2686 201.692C89.9906 201.692 90.5943 201.493 91.0796 201.097C91.565 200.694 91.926 200.156 92.1627 199.481C92.4054 198.806 92.5267 198.055 92.5267 197.226C92.5267 196.392 92.4054 195.637 92.1627 194.962C91.926 194.282 91.565 193.74 91.0796 193.338C90.5943 192.935 89.9906 192.734 89.2686 192.734C88.5287 192.734 87.9132 192.935 87.422 193.338C86.9366 193.74 86.5727 194.282 86.33 194.962C86.0932 195.637 85.9749 196.392 85.9749 197.226C85.9749 198.055 86.0932 198.806 86.33 199.481C86.5727 200.156 86.9366 200.694 87.422 201.097C87.9132 201.493 88.5287 201.692 89.2686 201.692ZM100.263 204V190.364H103.379V192.636H103.521C103.769 191.849 104.195 191.243 104.799 190.816C105.409 190.384 106.104 190.168 106.885 190.168C107.063 190.168 107.261 190.177 107.48 190.195C107.705 190.207 107.892 190.228 108.04 190.257V193.213C107.903 193.166 107.687 193.125 107.392 193.089C107.102 193.048 106.82 193.027 106.548 193.027C105.962 193.027 105.435 193.154 104.968 193.409C104.506 193.657 104.142 194.004 103.876 194.447C103.61 194.891 103.476 195.403 103.476 195.983V204H100.263ZM111.925 204V190.364H115.138V204H111.925ZM113.54 188.428C113.031 188.428 112.594 188.26 112.227 187.922C111.86 187.579 111.676 187.168 111.676 186.688C111.676 186.203 111.86 185.792 112.227 185.454C112.594 185.111 113.031 184.939 113.54 184.939C114.055 184.939 114.493 185.111 114.854 185.454C115.221 185.792 115.405 186.203 115.405 186.688C115.405 187.168 115.221 187.579 114.854 187.922C114.493 188.26 114.055 188.428 113.54 188.428ZM127.003 190.364V192.849H119.163V190.364H127.003ZM121.099 187.097H124.313V199.898C124.313 200.33 124.378 200.662 124.508 200.893C124.644 201.118 124.822 201.272 125.041 201.354C125.26 201.437 125.502 201.479 125.769 201.479C125.97 201.479 126.153 201.464 126.319 201.434C126.491 201.405 126.621 201.378 126.71 201.354L127.251 203.867C127.08 203.926 126.834 203.991 126.514 204.062C126.201 204.133 125.816 204.175 125.36 204.186C124.555 204.21 123.83 204.089 123.185 203.822C122.54 203.55 122.028 203.13 121.649 202.562C121.276 201.994 121.093 201.283 121.099 200.431V187.097ZM137.331 204.266C135.964 204.266 134.783 203.982 133.789 203.414C132.8 202.84 132.04 202.029 131.507 200.982C130.974 199.928 130.708 198.688 130.708 197.262C130.708 195.859 130.974 194.628 131.507 193.569C132.046 192.503 132.797 191.675 133.762 191.083C134.727 190.485 135.86 190.186 137.162 190.186C138.003 190.186 138.796 190.322 139.541 190.594C140.293 190.861 140.956 191.275 141.53 191.837C142.11 192.4 142.566 193.116 142.897 193.986C143.229 194.85 143.394 195.88 143.394 197.075V198.061H132.217V195.895H140.314C140.308 195.279 140.175 194.732 139.914 194.252C139.654 193.767 139.29 193.385 138.822 193.107C138.361 192.829 137.822 192.69 137.206 192.69C136.55 192.69 135.972 192.849 135.475 193.169C134.978 193.483 134.59 193.897 134.312 194.412C134.04 194.921 133.901 195.48 133.895 196.09V197.981C133.895 198.774 134.04 199.455 134.33 200.023C134.62 200.585 135.026 201.017 135.546 201.319C136.067 201.615 136.677 201.763 137.375 201.763C137.843 201.763 138.266 201.698 138.645 201.567C139.023 201.431 139.352 201.233 139.63 200.973C139.908 200.712 140.118 200.39 140.26 200.005L143.261 200.342C143.072 201.135 142.711 201.828 142.178 202.42C141.651 203.006 140.977 203.461 140.154 203.787C139.331 204.107 138.39 204.266 137.331 204.266ZM158.641 193.968L155.711 194.288C155.628 193.992 155.483 193.714 155.276 193.453C155.075 193.193 154.803 192.983 154.459 192.823C154.116 192.663 153.696 192.583 153.199 192.583C152.53 192.583 151.968 192.728 151.512 193.018C151.062 193.308 150.84 193.684 150.846 194.146C150.84 194.542 150.985 194.865 151.281 195.113C151.583 195.362 152.08 195.566 152.773 195.726L155.099 196.223C156.389 196.501 157.348 196.942 157.975 197.546C158.608 198.15 158.928 198.94 158.934 199.916C158.928 200.774 158.676 201.532 158.179 202.189C157.688 202.84 157.004 203.349 156.128 203.716C155.253 204.083 154.246 204.266 153.11 204.266C151.441 204.266 150.097 203.917 149.079 203.219C148.061 202.514 147.455 201.535 147.259 200.28L150.393 199.978C150.535 200.594 150.837 201.058 151.299 201.372C151.761 201.686 152.361 201.843 153.101 201.843C153.865 201.843 154.477 201.686 154.939 201.372C155.406 201.058 155.64 200.671 155.64 200.209C155.64 199.819 155.489 199.496 155.187 199.241C154.891 198.987 154.43 198.792 153.802 198.656L151.476 198.167C150.168 197.895 149.201 197.436 148.573 196.791C147.946 196.14 147.635 195.317 147.641 194.323C147.635 193.483 147.863 192.755 148.325 192.139C148.792 191.518 149.44 191.038 150.269 190.701C151.104 190.358 152.065 190.186 153.154 190.186C154.752 190.186 156.01 190.526 156.927 191.207C157.851 191.888 158.422 192.808 158.641 193.968Z" fill="#808080"/>
</svg>
