<svg width="511" height="71" viewBox="0 0 511 71" fill="none" xmlns="http://www.w3.org/2000/svg">
<path d="M38.2871 39.7031H10.2109V59.2344H38.2871L39.5078 58.0137V40.9238L38.2871 39.7031ZM39.5078 31.1582V38.4824L40.7285 39.7031H49.2734V59.2344H40.7285L39.5078 60.4551V69H0.445312V0.640625H39.5078V9.18555L40.7285 10.4062H49.2734V29.9375H40.7285L39.5078 31.1582ZM38.2871 29.9375L39.5078 28.7168V11.627L38.2871 10.4062H10.2109V29.9375H38.2871ZM124.322 59.2344H115.777V10.4062H124.322L125.543 9.18555V0.640625H154.84V9.18555L156.061 10.4062H164.605V20.1719H154.84V11.627L153.619 10.4062H126.764L125.543 11.627V58.0137L126.764 59.2344H153.619L154.84 58.0137V49.4688H164.605V59.2344H156.061L154.84 60.4551V69H125.543V60.4551L124.322 59.2344Z" fill="#4ECB71"/>
<path d="M61.2391 69V63.7H68.8391V35H61.3391V29.7H76.1391V63.7H83.2391V69H61.2391ZM71.5391 21.1C70.0724 21.1 68.8057 20.6333 67.7391 19.7C66.6724 18.7 66.1391 17.4667 66.1391 16C66.1391 14.5333 66.6724 13.3333 67.7391 12.4C68.8057 11.4 70.0724 10.9 71.5391 10.9C73.0724 10.9 74.3391 11.4 75.3391 12.4C76.4057 13.3333 76.9391 14.5333 76.9391 16C76.9391 17.4667 76.4057 18.7 75.3391 19.7C74.3391 20.6333 73.0724 21.1 71.5391 21.1ZM105.599 69C101.866 69 99.0326 68.0667 97.0992 66.2C95.1659 64.2667 94.1992 61.3333 94.1992 57.4V35H87.6992V29.7H94.1992V16.3L101.599 13.4V29.7H111.999V35H101.599V57C101.599 59.4667 101.999 61.2 102.799 62.2C103.599 63.2 104.966 63.7 106.899 63.7H112.899V69H105.599ZM198.071 70.2C193.871 70.2 190.171 69.3333 186.971 67.6C183.771 65.8667 181.271 63.4333 179.471 60.3C177.738 57.1667 176.871 53.5 176.871 49.3C176.871 45.1 177.738 41.4667 179.471 38.4C181.271 35.2667 183.771 32.8667 186.971 31.2C190.171 29.4667 193.871 28.6 198.071 28.6C202.338 28.6 206.071 29.4667 209.271 31.2C212.471 32.8667 214.971 35.2667 216.771 38.4C218.571 41.4667 219.471 45.0667 219.471 49.2C219.471 53.4 218.571 57.0667 216.771 60.2C214.971 63.3333 212.471 65.8 209.271 67.6C206.071 69.3333 202.338 70.2 198.071 70.2ZM198.071 64.4C200.871 64.4 203.304 63.7667 205.371 62.5C207.438 61.2333 209.038 59.4667 210.171 57.2C211.304 54.9333 211.871 52.2667 211.871 49.2C211.871 46.2 211.304 43.6 210.171 41.4C209.038 39.2 207.438 37.5 205.371 36.3C203.304 35.0333 200.871 34.4 198.071 34.4C195.338 34.4 192.938 35.0333 190.871 36.3C188.871 37.5 187.304 39.2333 186.171 41.5C185.038 43.7 184.471 46.3 184.471 49.3C184.471 52.3 185.038 54.9333 186.171 57.2C187.304 59.4667 188.871 61.2333 190.871 62.5C192.938 63.7667 195.338 64.4 198.071 64.4ZM242.73 70C239.663 70 237.163 69.4 235.23 68.2C233.296 67 231.863 65.4 230.93 63.4C230.063 61.4 229.63 59.2 229.63 56.8V35H223.03V29.7H237.03V56C237.03 58.4667 237.63 60.4333 238.83 61.9C240.03 63.3667 241.896 64.1 244.43 64.1C247.363 64.1 250.063 63.4 252.53 62C254.996 60.6 257.33 58.6667 259.53 56.2L257.23 60.1V35H250.13V29.7H264.53V63.7H271.83V69H257.43L257.13 62.5L259.73 62C257.13 64.4667 254.396 66.4333 251.53 67.9C248.73 69.3 245.796 70 242.73 70ZM275.106 69V63.7H282.706V35H275.106V29.7H290.006V35.1L287.206 35.4C290.006 33.4667 292.806 31.8667 295.606 30.6C298.406 29.3333 301.273 28.7 304.206 28.7C307.806 28.7 310.84 29.8333 313.306 32.1C315.84 34.3 317.106 37.5333 317.106 41.8V63.7H324.406V69H303.306V63.7H309.806V43.2C309.806 40.4667 309.14 38.3333 307.806 36.8C306.473 35.2667 304.64 34.5 302.306 34.5C299.906 34.5 297.473 35.0333 295.006 36.1C292.54 37.1667 289.906 38.6333 287.106 40.5L290.006 37.3V63.7H297.106V69H275.106ZM344.466 69C340.733 69 337.9 68.0667 335.966 66.2C334.033 64.2667 333.066 61.3333 333.066 57.4V35H326.566V29.7H333.066V16.3L340.466 13.4V29.7H350.866V35H340.466V57C340.466 59.4667 340.866 61.2 341.666 62.2C342.466 63.2 343.833 63.7 345.766 63.7H351.766V69H344.466ZM379.345 70.2C375.211 70.2 371.445 69.3333 368.045 67.6C364.711 65.8667 362.045 63.4333 360.045 60.3C358.111 57.1667 357.145 53.5333 357.145 49.4C357.145 45.1333 358.078 41.4667 359.945 38.4C361.811 35.2667 364.311 32.8667 367.445 31.2C370.578 29.4667 374.078 28.6 377.945 28.6C381.945 28.6 385.378 29.4333 388.245 31.1C391.178 32.7667 393.411 35.1333 394.945 38.2C396.478 41.2667 397.245 44.8667 397.245 49V50.9H363.645L363.745 46.3H389.945C389.945 43.7 389.411 41.5 388.345 39.7C387.345 37.8333 385.945 36.4333 384.145 35.5C382.345 34.5 380.278 34 377.945 34C375.478 34 373.245 34.6 371.245 35.8C369.245 36.9333 367.645 38.6 366.445 40.8C365.311 42.9333 364.745 45.5333 364.745 48.6C364.745 51.8667 365.345 54.7 366.545 57.1C367.745 59.4333 369.411 61.2667 371.545 62.6C373.745 63.8667 376.245 64.5 379.045 64.5C382.045 64.5 384.811 63.9 387.345 62.7C389.878 61.5 392.078 60 393.945 58.2L396.545 62.7C394.745 64.7667 392.411 66.5333 389.545 68C386.678 69.4667 383.278 70.2 379.345 70.2ZM404.238 69V63.7H411.838V35H404.238V29.7H419.138V41.4L417.738 41.2C418.472 38.2 419.405 35.8333 420.538 34.1C421.738 32.3667 423.072 31.1333 424.538 30.4C426.072 29.6 427.638 29.2 429.238 29.2C430.572 29.2 431.905 29.3667 433.238 29.7C434.572 30.0333 435.905 30.5333 437.238 31.2L435.438 37.9C434.305 37.1667 433.172 36.6333 432.038 36.3C430.905 35.9 429.738 35.7 428.538 35.7C426.005 35.7 423.805 36.7667 421.938 38.9C420.138 40.9667 419.238 43.9667 419.238 47.9L419.138 63.7H426.138V69H404.238Z" fill="white"/>
<path d="M443.813 69V61.95H450.863V69H443.813ZM458.541 69V65.025H464.241V43.5H458.616V39.525H469.716V65.025H475.041V69H458.541ZM466.266 33.075C465.166 33.075 464.216 32.725 463.416 32.025C462.616 31.275 462.216 30.35 462.216 29.25C462.216 28.15 462.616 27.25 463.416 26.55C464.216 25.8 465.166 25.425 466.266 25.425C467.416 25.425 468.366 25.8 469.116 26.55C469.916 27.25 470.316 28.15 470.316 29.25C470.316 30.35 469.916 31.275 469.116 32.025C468.366 32.725 467.416 33.075 466.266 33.075ZM494.661 69.9C491.511 69.9 488.736 69.25 486.336 67.95C483.936 66.65 482.061 64.825 480.711 62.475C479.411 60.125 478.761 57.375 478.761 54.225C478.761 51.075 479.411 48.35 480.711 46.05C482.061 43.7 483.936 41.9 486.336 40.65C488.736 39.35 491.511 38.7 494.661 38.7C497.861 38.7 500.661 39.35 503.061 40.65C505.461 41.9 507.336 43.7 508.686 46.05C510.036 48.35 510.711 51.05 510.711 54.15C510.711 57.3 510.036 60.05 508.686 62.4C507.336 64.75 505.461 66.6 503.061 67.95C500.661 69.25 497.861 69.9 494.661 69.9ZM494.661 65.55C496.761 65.55 498.586 65.075 500.136 64.125C501.686 63.175 502.886 61.85 503.736 60.15C504.586 58.45 505.011 56.45 505.011 54.15C505.011 51.9 504.586 49.95 503.736 48.3C502.886 46.65 501.686 45.375 500.136 44.475C498.586 43.525 496.761 43.05 494.661 43.05C492.611 43.05 490.811 43.525 489.261 44.475C487.761 45.375 486.586 46.675 485.736 48.375C484.886 50.025 484.461 51.975 484.461 54.225C484.461 56.475 484.886 58.45 485.736 60.15C486.586 61.85 487.761 63.175 489.261 64.125C490.811 65.075 492.611 65.55 494.661 65.55Z" fill="#999999"/>
</svg>
