<svg width="1315" height="171" viewBox="0 0 1315 171" fill="none" xmlns="http://www.w3.org/2000/svg">
<path d="M0.78125 168V8H62.0313C73.5938 8 83.2031 9.82291 90.8594 13.4687C98.5677 17.0625 104.323 21.9844 108.125 28.2344C111.979 34.4844 113.906 41.5677 113.906 49.4844C113.906 55.9948 112.656 61.5677 110.156 66.2031C107.656 70.7865 104.297 74.5104 100.078 77.375C95.8594 80.2396 91.1458 82.2969 85.9375 83.5469V85.1094C91.6146 85.4219 97.0573 87.1667 102.266 90.3437C107.526 93.4687 111.823 97.8958 115.156 103.625C118.49 109.354 120.156 116.281 120.156 124.406C120.156 132.687 118.151 140.135 114.141 146.75C110.13 153.312 104.089 158.495 96.0156 162.297C87.9427 166.099 77.7865 168 65.5469 168H0.78125ZM29.7656 143.781H60.9375C71.4583 143.781 79.0365 141.776 83.6719 137.766C88.3594 133.703 90.7031 128.495 90.7031 122.141C90.7031 117.401 89.5313 113.13 87.1875 109.328C84.8438 105.474 81.5104 102.453 77.1875 100.266C72.8646 98.026 67.7083 96.9063 61.7188 96.9063H29.7656V143.781ZM29.7656 76.0469H58.4375C63.4375 76.0469 67.9427 75.1354 71.9531 73.3125C75.9635 71.4375 79.1146 68.8073 81.4063 65.4219C83.75 61.9844 84.9219 57.9219 84.9219 53.2344C84.9219 47.0365 82.7344 41.9323 78.3594 37.9219C74.0365 33.9114 67.6042 31.9062 59.0625 31.9062H29.7656V76.0469ZM144.121 168V48H172.402V168H144.121ZM158.34 30.9688C153.861 30.9688 150.007 29.4844 146.777 26.5156C143.548 23.4948 141.934 19.875 141.934 15.6562C141.934 11.3854 143.548 7.76562 146.777 4.79686C150.007 1.77603 153.861 0.26562 158.34 0.26562C162.871 0.26562 166.725 1.77603 169.902 4.79686C173.132 7.76562 174.746 11.3854 174.746 15.6562C174.746 19.875 173.132 23.4948 169.902 26.5156C166.725 29.4844 162.871 30.9688 158.34 30.9688ZM261.406 48V69.875H192.422V48H261.406ZM209.453 19.25H237.734V131.906C237.734 135.708 238.307 138.625 239.453 140.656C240.651 142.635 242.214 143.99 244.141 144.719C246.068 145.448 248.203 145.812 250.547 145.812C252.318 145.812 253.932 145.682 255.391 145.422C256.901 145.161 258.047 144.927 258.828 144.719L263.594 166.828C262.083 167.349 259.922 167.922 257.109 168.547C254.349 169.172 250.964 169.536 246.953 169.641C239.87 169.849 233.49 168.781 227.813 166.437C222.135 164.042 217.63 160.344 214.297 155.344C211.016 150.344 209.401 144.094 209.453 136.594V19.25ZM423.262 61.9844H394.043C393.21 57.1927 391.673 52.9479 389.434 49.25C387.194 45.5 384.408 42.3229 381.074 39.7187C377.741 37.1146 373.939 35.1615 369.668 33.8594C365.449 32.5052 360.892 31.8281 355.996 31.8281C347.298 31.8281 339.59 34.0156 332.871 38.3906C326.152 42.7135 320.892 49.0677 317.09 57.4531C313.288 65.7865 311.387 75.9687 311.387 88C311.387 100.24 313.288 110.552 317.09 118.937C320.944 127.271 326.204 133.573 332.871 137.844C339.59 142.062 347.272 144.172 355.918 144.172C360.71 144.172 365.189 143.547 369.355 142.297C373.574 140.995 377.35 139.094 380.684 136.594C384.069 134.094 386.908 131.021 389.199 127.375C391.543 123.729 393.158 119.562 394.043 114.875L423.262 115.031C422.168 122.635 419.798 129.771 416.152 136.438C412.559 143.104 407.845 148.99 402.012 154.094C396.178 159.146 389.355 163.104 381.543 165.969C373.73 168.781 365.059 170.187 355.527 170.187C341.465 170.187 328.913 166.932 317.871 160.422C306.829 153.911 298.132 144.51 291.777 132.219C285.423 119.927 282.246 105.187 282.246 88C282.246 70.7604 285.449 56.0208 291.855 43.7812C298.262 31.4896 306.986 22.0885 318.027 15.5781C329.069 9.0677 341.569 5.81249 355.527 5.81249C364.434 5.81249 372.715 7.06249 380.371 9.56249C388.027 12.0625 394.85 15.7344 400.84 20.5781C406.829 25.3698 411.751 31.2552 415.605 38.2344C419.512 45.1615 422.064 53.0781 423.262 61.9844ZM500.898 170.344C489.18 170.344 479.023 167.766 470.43 162.609C461.836 157.453 455.169 150.24 450.43 140.969C445.742 131.698 443.398 120.865 443.398 108.469C443.398 96.0729 445.742 85.2135 450.43 75.8906C455.169 66.5677 461.836 59.3281 470.43 54.1719C479.023 49.0156 489.18 46.4375 500.898 46.4375C512.617 46.4375 522.773 49.0156 531.367 54.1719C539.961 59.3281 546.602 66.5677 551.289 75.8906C556.029 85.2135 558.398 96.0729 558.398 108.469C558.398 120.865 556.029 131.698 551.289 140.969C546.602 150.24 539.961 157.453 531.367 162.609C522.773 167.766 512.617 170.344 500.898 170.344ZM501.055 147.687C507.409 147.687 512.721 145.943 516.992 142.453C521.263 138.911 524.44 134.172 526.523 128.234C528.659 122.297 529.727 115.682 529.727 108.391C529.727 101.047 528.659 94.4062 526.523 88.4687C524.44 82.4792 521.263 77.7135 516.992 74.1719C512.721 70.6302 507.409 68.8594 501.055 68.8594C494.544 68.8594 489.128 70.6302 484.805 74.1719C480.534 77.7135 477.331 82.4792 475.195 88.4687C473.112 94.4062 472.07 101.047 472.07 108.391C472.07 115.682 473.112 122.297 475.195 128.234C477.331 134.172 480.534 138.911 484.805 142.453C489.128 145.943 494.544 147.687 501.055 147.687ZM658.887 117.531V48H687.168V168H659.746V146.672H658.496C655.788 153.391 651.335 158.885 645.137 163.156C638.991 167.427 631.413 169.563 622.402 169.563C614.538 169.563 607.585 167.818 601.543 164.328C595.553 160.786 590.866 155.656 587.48 148.938C584.095 142.167 582.402 133.99 582.402 124.406V48H610.684V120.031C610.684 127.635 612.767 133.677 616.934 138.156C621.1 142.635 626.569 144.875 633.34 144.875C637.507 144.875 641.543 143.859 645.449 141.828C649.355 139.797 652.559 136.776 655.059 132.766C657.611 128.703 658.887 123.625 658.887 117.531ZM744.531 97.6875V168H716.25V48H743.281V68.3906H744.688C747.448 61.6719 751.849 56.3333 757.891 52.375C763.984 48.4167 771.51 46.4375 780.469 46.4375C788.75 46.4375 795.964 48.2083 802.109 51.75C808.307 55.2917 813.099 60.4219 816.484 67.1406C819.922 73.8594 821.615 82.0104 821.562 91.5937V168H793.281V95.9687C793.281 87.9479 791.198 81.6719 787.031 77.1406C782.917 72.6094 777.214 70.3437 769.922 70.3437C764.974 70.3437 760.573 71.4375 756.719 73.625C752.917 75.7604 749.922 78.8594 747.734 82.9219C745.599 86.9844 744.531 91.9062 744.531 97.6875ZM910.234 48V69.875H841.25V48H910.234ZM858.281 19.25H886.563V131.906C886.563 135.708 887.135 138.625 888.281 140.656C889.479 142.635 891.042 143.99 892.969 144.719C894.896 145.448 897.031 145.812 899.375 145.812C901.146 145.812 902.76 145.682 904.219 145.422C905.729 145.161 906.875 144.927 907.656 144.719L912.422 166.828C910.911 167.349 908.75 167.922 905.938 168.547C903.177 169.172 899.792 169.536 895.781 169.641C888.698 169.849 882.318 168.781 876.641 166.437C870.964 164.042 866.458 160.344 863.125 155.344C859.844 150.344 858.229 144.094 858.281 136.594V19.25ZM985.723 170.344C973.691 170.344 963.301 167.844 954.551 162.844C945.853 157.792 939.16 150.656 934.473 141.437C929.785 132.167 927.441 121.255 927.441 108.703C927.441 96.3594 929.785 85.526 934.473 76.2031C939.212 66.8281 945.827 59.5365 954.316 54.3281C962.806 49.0677 972.78 46.4375 984.238 46.4375C991.634 46.4375 998.613 47.6354 1005.18 50.0312C1011.79 52.375 1017.62 56.0208 1022.68 60.9687C1027.78 65.9167 1031.79 72.2187 1034.71 79.875C1037.62 87.4792 1039.08 96.5417 1039.08 107.062V115.734H940.723V96.6719H1011.97C1011.92 91.2552 1010.75 86.4375 1008.46 82.2187C1006.17 77.9479 1002.96 74.5885 998.848 72.1406C994.785 69.6927 990.046 68.4687 984.629 68.4687C978.848 68.4687 973.77 69.875 969.395 72.6875C965.02 75.4479 961.608 79.0937 959.16 83.625C956.764 88.1042 955.54 93.026 955.488 98.3906V115.031C955.488 122.01 956.764 128 959.316 133C961.868 137.948 965.436 141.75 970.02 144.406C974.603 147.01 979.967 148.312 986.113 148.312C990.228 148.312 993.952 147.74 997.285 146.594C1000.62 145.396 1003.51 143.651 1005.96 141.359C1008.4 139.068 1010.25 136.229 1011.5 132.844L1037.91 135.812C1036.24 142.792 1033.07 148.885 1028.38 154.094C1023.74 159.25 1017.81 163.26 1010.57 166.125C1003.33 168.937 995.046 170.344 985.723 170.344ZM1063.01 168V48H1090.43V68H1091.68C1093.87 61.0729 1097.62 55.7344 1102.93 51.9844C1108.29 48.1823 1114.41 46.2812 1121.29 46.2812C1122.85 46.2812 1124.6 46.3594 1126.52 46.5156C1128.5 46.6198 1130.14 46.8021 1131.45 47.0625V73.0781C1130.25 72.6615 1128.35 72.2969 1125.74 71.9844C1123.19 71.6198 1120.72 71.4375 1118.32 71.4375C1113.16 71.4375 1108.53 72.5573 1104.41 74.7969C1100.35 76.9844 1097.15 80.0312 1094.8 83.9375C1092.46 87.8437 1091.29 92.349 1091.29 97.4531V168H1063.01Z" fill="white"/>
<path d="M1158.94 169.25C1155.49 169.25 1152.54 168.038 1150.08 165.614C1147.62 163.189 1146.4 160.235 1146.44 156.75C1146.4 153.341 1147.62 150.424 1150.08 148C1152.54 145.576 1155.49 144.364 1158.94 144.364C1162.28 144.364 1165.17 145.576 1167.63 148C1170.13 150.424 1171.4 153.341 1171.44 156.75C1171.4 159.061 1170.8 161.163 1169.62 163.057C1168.49 164.951 1166.97 166.466 1165.08 167.602C1163.22 168.701 1161.18 169.25 1158.94 169.25ZM1192.68 168V80.7273H1213.25V168H1192.68ZM1203.02 68.3409C1199.76 68.3409 1196.96 67.2614 1194.61 65.1023C1192.26 62.9053 1191.09 60.2727 1191.09 57.2045C1191.09 54.0985 1192.26 51.4659 1194.61 49.3068C1196.96 47.1098 1199.76 46.0114 1203.02 46.0114C1206.31 46.0114 1209.12 47.1098 1211.43 49.3068C1213.78 51.4659 1214.95 54.0985 1214.95 57.2045C1214.95 60.2727 1213.78 62.9053 1211.43 65.1023C1209.12 67.2614 1206.31 68.3409 1203.02 68.3409ZM1272.46 169.705C1263.94 169.705 1256.56 167.83 1250.31 164.08C1244.06 160.33 1239.21 155.083 1235.76 148.341C1232.35 141.598 1230.65 133.72 1230.65 124.705C1230.65 115.689 1232.35 107.792 1235.76 101.011C1239.21 94.2311 1244.06 88.9659 1250.31 85.2159C1256.56 81.4659 1263.94 79.5909 1272.46 79.5909C1280.99 79.5909 1288.37 81.4659 1294.62 85.2159C1300.87 88.9659 1305.7 94.2311 1309.11 101.011C1312.56 107.792 1314.28 115.689 1314.28 124.705C1314.28 133.72 1312.56 141.598 1309.11 148.341C1305.7 155.083 1300.87 160.33 1294.62 164.08C1288.37 167.83 1280.99 169.705 1272.46 169.705ZM1272.58 153.227C1277.2 153.227 1281.06 151.958 1284.17 149.42C1287.28 146.845 1289.59 143.398 1291.1 139.08C1292.65 134.761 1293.43 129.951 1293.43 124.648C1293.43 119.307 1292.65 114.477 1291.1 110.159C1289.59 105.803 1287.28 102.337 1284.17 99.7614C1281.06 97.1856 1277.2 95.8977 1272.58 95.8977C1267.84 95.8977 1263.9 97.1856 1260.76 99.7614C1257.65 102.337 1255.32 105.803 1253.77 110.159C1252.26 114.477 1251.5 119.307 1251.5 124.648C1251.5 129.951 1252.26 134.761 1253.77 139.08C1255.32 143.398 1257.65 146.845 1260.76 149.42C1263.9 151.958 1267.84 153.227 1272.58 153.227Z" fill="#888888"/>
</svg>
